<?xml version="1.0" encoding="utf-8"?>
<!-- Generator: Adobe Illustrator 16.0.0, SVG Export Plug-In . SVG Version: 6.00 Build 0)  -->
<!DOCTYPE svg PUBLIC "-//W3C//DTD SVG 1.1//EN" "http://www.w3.org/Graphics/SVG/1.1/DTD/svg11.dtd">
<svg version="1.1" id="Layer_1" xmlns="http://www.w3.org/2000/svg" xmlns:xlink="http://www.w3.org/1999/xlink" x="0px" y="0px"
	 width="446.137px" height="88.718px" viewBox="0 0 446.137 88.718" enable-background="new 0 0 446.137 88.718"
	 xml:space="preserve">
<linearGradient id="SVGID_1_" gradientUnits="userSpaceOnUse" x1="147.7266" y1="85.7124" x2="147.7266" y2="1.3022">
	<stop  offset="0" style="stop-color:#F37B20"/>
	<stop  offset="0.4558" style="stop-color:#F48120"/>
	<stop  offset="0.5089" style="stop-color:#F9A51A"/>
	<stop  offset="1" style="stop-color:#F48120"/>
</linearGradient>
<path fill="url(#SVGID_1_)" d="M237.52,53.261c5.205,0.049,10.383,0.136,15.531,0.262V24.811l-15.531,14.18V53.261z M215.305,40.976
	l-1.645-4.936h-13.166v17.514c5.146-0.131,10.329-0.221,15.53-0.277v-2.016c3.394-2.572,5.554-3.295,8.433-3.295
	c1.234,0,3.806,0.311,6.582,2.058l5.453-12.652c-2.471-1.745-5.555-2.468-8.023-2.468C223.018,34.904,219.109,37.579,215.305,40.976
	z M163.468,48.482c1.442-0.516,3.086-0.816,4.835-0.816c5.084,0,8.985,2.924,10.974,6.664c5.491-0.257,11.016-0.468,16.577-0.637
	c-2.162-12.461-12.766-18.789-24.056-18.789c-3.187,0-5.861,0.413-8.33,0.928V3.922l-15.526,7.949v44.416
	c5.131-0.406,10.312-0.765,15.526-1.092V48.482z M238.239,32.521l15.529-14.182V1.302l-15.529,13.104V32.521z M117.084,46.427
	c4.421,0,8.535,2.055,8.535,6.377v0.409l-7.815,0.31c-8.444,0.357-15.222,2.916-18.613,7.914c13.69-1.828,27.803-3.373,42.27-4.613
	V53.42c0-12.957-7.2-18.516-21.081-18.516c-3.108,0-6.217,0.222-11.607,0.88l-5.091,12.986
	C109.187,47.302,113.017,46.427,117.084,46.427z M68.179,84.685H83.71V68.203c-5.246,0.807-10.422,1.656-15.531,2.547V84.685z
	 M237.52,84.685h15.531V57.963c-5.148-0.126-10.326-0.21-15.531-0.257V84.685z M141.46,61.326
	c-6.108,0.531-12.157,1.113-18.132,1.744l2.188-0.084v9.357c-1.13,0.723-3.288,1.442-6.273,1.442c-4.316,0-6.89-1.957-6.89-5.349
	c0-2.244,1.275-3.754,3.734-4.562c-6.391,0.729-12.694,1.525-18.91,2.374c-0.223,1.075-0.352,2.209-0.352,3.423
	c0,9.768,6.99,16.041,16.557,16.041c6.068,0,10.284-2.259,13.574-5.141l2.158,4.113h13.168c-0.823-2.671-0.823-6.583-0.823-9.05
	V61.326z M105.645,36.04H83.71v-6.686c0-3.292,1.749-5.247,5.245-5.247c1.853,0,4.111,0.518,11.568-0.572l13.053-11.672
	c-8.998-0.048-23.391,0.007-26.266,0.007c-7.406,0-19.132,3.082-19.132,18.618v5.552H45.374l-3.688,11.517h26.494v18.631
	c5.109-0.884,10.285-1.733,15.531-2.532V47.557h17.47L105.645,36.04z M180.67,58.749c0.047,0.415,0.075,0.839,0.075,1.257
	c0,7.507-4.933,13.164-12.339,13.164c-1.952,0-3.392-0.104-4.938-0.518V59.687c-5.215,0.33-10.396,0.695-15.526,1.105v21.222
	c5.141,2.671,11.213,3.698,17.585,3.698c16.863,0,30.752-10.18,30.752-27.25c0-0.107-0.012-0.205-0.015-0.311
	C191.031,58.31,185.834,58.511,180.67,58.749z M200.495,84.685h15.53v-26.95c-5.201,0.063-10.385,0.153-15.53,0.292V84.685z"/>
<linearGradient id="SVGID_2_" gradientUnits="userSpaceOnUse" x1="127.5498" y1="85.7124" x2="127.5498" y2="1.3022">
	<stop  offset="0" style="stop-color:#F26F21"/>
	<stop  offset="1" style="stop-color:#FBB216"/>
</linearGradient>
<path fill="url(#SVGID_2_)" d="M237.52,53.261c5.205,0.049,10.383,0.136,15.531,0.262V24.811l-15.531,14.18V53.261z M215.305,40.976
	l-1.645-4.936h-13.166v17.514c5.146-0.131,10.329-0.221,15.53-0.277v-2.016c3.394-2.572,5.554-3.295,8.433-3.295
	c1.234,0,3.806,0.311,6.582,2.058l5.453-12.652c-2.471-1.745-5.555-2.468-8.023-2.468C223.018,34.904,219.109,37.579,215.305,40.976
	z M163.468,48.482c1.442-0.516,3.086-0.816,4.835-0.816c5.084,0,8.985,2.924,10.974,6.664c5.491-0.257,11.016-0.468,16.577-0.637
	c-2.162-12.461-12.766-18.789-24.056-18.789c-3.187,0-5.861,0.413-8.33,0.928V3.922l-15.526,7.949v44.416
	c5.131-0.406,10.312-0.765,15.526-1.092V48.482z M238.239,32.521l15.529-14.182V1.302l-15.529,13.104V32.521z M117.084,46.427
	c4.421,0,8.535,2.055,8.535,6.377v0.409l-7.815,0.31c-8.444,0.357-15.222,2.916-18.613,7.914c13.69-1.828,27.803-3.373,42.27-4.613
	V53.42c0-12.957-7.2-18.516-21.081-18.516c-3.108,0-6.217,0.222-11.607,0.88l-5.091,12.986
	C109.187,47.302,113.017,46.427,117.084,46.427z M68.179,84.685H83.71V68.203c-5.246,0.807-10.422,1.656-15.531,2.547V84.685z
	 M237.52,84.685h15.531V57.963c-5.148-0.126-10.326-0.21-15.531-0.257V84.685z M141.46,61.326
	c-6.108,0.531-12.157,1.113-18.132,1.744l2.188-0.084v9.357c-1.13,0.723-3.288,1.442-6.273,1.442c-4.316,0-6.89-1.957-6.89-5.349
	c0-2.244,1.275-3.754,3.734-4.562c-6.391,0.729-12.694,1.525-18.91,2.374c-0.223,1.075-0.352,2.209-0.352,3.423
	c0,9.768,6.99,16.041,16.557,16.041c6.068,0,10.284-2.259,13.574-5.141l2.158,4.113h13.168c-0.823-2.671-0.823-6.583-0.823-9.05
	V61.326z M112.899,36.04H83.71v-6.686c0-3.292,1.749-5.247,5.245-5.247c1.853,0,4.111,0.518,11.568-0.572l13.053-11.672
	c-8.998-0.048-23.391,0.007-26.266,0.007c-7.406,0-19.132,3.082-19.132,18.618v5.552H5.016L1.331,47.557h66.849v18.631
	c5.109-0.884,10.285-1.733,15.531-2.532V47.557h24.726L112.899,36.04z M180.67,58.749c0.047,0.415,0.075,0.839,0.075,1.257
	c0,7.507-4.933,13.164-12.339,13.164c-1.952,0-3.392-0.104-4.938-0.518V59.687c-5.215,0.33-10.396,0.695-15.526,1.105v21.222
	c5.141,2.671,11.213,3.698,17.585,3.698c16.863,0,30.752-10.18,30.752-27.25c0-0.107-0.012-0.205-0.015-0.311
	C191.031,58.31,185.834,58.511,180.67,58.749z M200.495,84.685h15.53v-26.95c-5.201,0.063-10.385,0.153-15.53,0.292V84.685z"/>
<path fill="#FFFFFF" d="M287.403,46.427c4.734,0,8.332,1.238,11.932,4.215l0.307-12.135c-2.469-1.646-6.789-3.603-14.809-3.603
	c-11.35,0-22.15,7.06-25.164,18.808c5.246,0.162,10.455,0.368,15.631,0.605C277.336,49.494,282.084,46.427,287.403,46.427z
	 M350.653,36.04h-15.529v22.908c5.232,0.573,10.41,1.186,15.529,1.845V36.04z M377.803,36.04V20.099l-15.527,4.421v11.52h-8.564
	V47.25h8.564v15.096c5.242,0.744,10.418,1.531,15.527,2.361V47.25h62.352l4.316-11.209H377.803z M319.799,36.04h-15.527v20.042
	c5.219,0.399,10.396,0.837,15.527,1.312V36.04z M287.299,73.476c-9.463,0-13.064-7.096-13.064-13.783c0-0.343,0.029-0.672,0.053-1
	c-5.088-0.229-10.209-0.414-15.363-0.572c-0.062,0.756-0.113,1.512-0.113,2.293c0,13.99,8.33,25.299,24.787,25.299
	c7.098,0,14.297-2.67,18.41-5.652l-3.602-9.876C294.708,72.242,291.413,73.476,287.299,73.476z M350.653,65.16
	c-5.119-0.654-10.297-1.268-15.529-1.834v7.993c-2.16,1.435-4.525,2.364-6.992,2.364c-5.863,0-8.332-4.119-8.332-8.848v-3.053
	c-5.131-0.473-10.309-0.906-15.527-1.297v5.07c0,16.973,11.311,20.156,17.586,20.156c6.377,0,11.105-2.67,14.395-5.652l2.162,4.625
	h13.059c-0.82-2.671-0.82-6.583-0.82-8.945V65.16z M389.514,71.027c-1.875,0.926-4.598,1.832-7.08,1.832
	c-2.701,0-4.139-1.27-4.514-3.783c-5.148-0.83-10.367-1.618-15.645-2.359v6.967c0,6.684,3.391,12.029,13.064,12.029
	c4.828,0,12.646-1.234,18.713-5.551l-3.709-8.984C390.065,71.125,389.792,71.076,389.514,71.027z"/>
<g>
	
		<image overflow="visible" width="2147" height="652" xlink:href="53BB2DE4D10185EA.png"  transform="matrix(0.24 0 0 0.24 -34.6694 -35)">
	</image>
</g>
</svg>
