<?xml version="1.0" encoding="utf-8"?>
<!-- Generator: Adobe Illustrator 16.0.0, SVG Export Plug-In . SVG Version: 6.00 Build 0)  -->
<!DOCTYPE svg PUBLIC "-//W3C//DTD SVG 1.1//EN" "http://www.w3.org/Graphics/SVG/1.1/DTD/svg11.dtd">
<svg version="1.1" id="Layer_1" xmlns="http://www.w3.org/2000/svg" xmlns:xlink="http://www.w3.org/1999/xlink" x="0px" y="0px"
	 width="960px" height="560px" viewBox="0 0 960 560" enable-background="new 0 0 960 560" xml:space="preserve">
<g>
	<path fill="#FFFFFF" d="M654.255,281.971c-1.5,5.736-2.771,11.218-3.813,16.43c-1.045-2.214-2.12-4.492-3.226-6.84
		c-1.109-2.345-2.38-4.915-3.813-7.721c-1.436-2.801-3.063-5.929-4.888-9.384c-1.827-3.452-3.978-7.46-6.451-12.024l-17.402-33.043
		c-1.695-3.257-3.422-5.832-5.182-7.723c-1.759-1.888-3.586-3.354-5.474-4.399c-1.892-1.042-3.88-1.726-5.964-2.053
		c-2.086-0.324-4.369-0.489-6.844-0.489c-2.346,0-4.563,0.165-6.647,0.489c-2.086,0.327-4.075,1.011-5.963,2.053
		c-1.891,1.045-3.685,2.511-5.376,4.399c-1.696,1.891-3.392,4.466-5.084,7.723l-17.597,32.847
		c-4.564,8.475-8.246,15.48-11.048,21.018c-2.804,5.542-5.248,10.592-7.332,15.153c-1.044-5.343-2.248-10.818-3.616-16.424
		c-1.369-5.604-3.098-12.15-5.182-19.581l-12.317-45.584h-27.063c-3.583,3.702-6.927,7.616-10.021,11.726l29.849,103.268
		c1.824,6.128,4.79,10.671,8.896,13.603c4.105,2.933,8.7,4.407,13.784,4.407c5.343,0,9.806-1.269,13.393-3.81
		c3.583-2.542,6.55-5.894,8.896-10.067l20.921-37.147c2.865-5.084,5.343-9.514,7.43-13.295c2.083-3.78,3.94-7.201,5.571-10.266
		c1.629-3.061,3.062-5.832,4.302-8.309c1.237-2.475,2.377-4.888,3.422-7.234c1.173,2.346,2.377,4.76,3.617,7.234
		c1.237,2.477,2.704,5.248,4.399,8.309c1.692,3.064,3.583,6.52,5.67,10.363c2.083,3.846,4.561,8.31,7.429,13.393l20.922,36.953
		c2.475,4.302,5.505,7.693,9.091,10.168c3.584,2.475,7.982,3.715,13.198,3.715c5.083,0,9.678-1.467,13.783-4.399
		c4.106-2.933,7.07-7.489,8.897-13.617l18.019-61.259c-4.898-17.468-13.53-33.845-25.31-47.739l-10.697,39.588
		C657.481,269.705,655.752,276.236,654.255,281.971z"/>
	<path fill="#FFFFFF" d="M453.948,235.723c2.077,3.374,4.015,6.829,5.794,10.362c6.137-12.179,14.196-23.415,23.958-33.178
		c24.131-24.131,57.253-37.857,91.396-37.857c34.145,0,67.268,13.727,91.397,37.857c24.131,24.13,37.857,57.253,37.857,91.397
		c0,15.021-2.675,29.836-7.709,43.78h36.968c5.223-19.028,7.374-37.979,5.581-57.194c-15.992-3.652-26.92-12.295-31.406-27.684
		c-4.529-15.527,0.601-28.728,11.401-39.939c-9.693-17.465-21.702-32.278-36.427-45.036c-13.614,8.897-27.593,10.57-41.761,2.863
		c-14.155-7.701-20.32-20.367-20.232-36.468c-19.114-5.305-38.248-7.514-57.719-5.779c-6.321,31.744-43.675,45.029-67.729,20.074
		c-16.996,9.517-32.267,21.208-44.79,36.61C459.026,208.663,460.713,222.195,453.948,235.723z"/>
	<path fill="#FFFFFF" d="M261.936,399.361c2.629-0.719,5.043-2.605,7.258-4.34c2.118-1.659,1.722-4.035-0.68-5.313
		c-1.138-0.606-2.463-1.045-3.741-1.166c-1.833-0.174-1.964-0.953-1.505-2.471c1.461-4.836,2.949-9.669,4.181-14.563
		c0.579-2.297,1.755-3.485,3.914-4.445c2.687-1.195,5.197-2.902,7.546-4.696c1.453-1.109,1.381-3.197,0.048-3.998
		c-1.472-0.885-3.13-1.726-4.793-1.948c-1.73-0.231-2.142-0.628-1.64-2.294c1.617-5.358,3.225-10.724,4.633-16.14
		c0.541-2.078,1.691-3.09,3.554-3.994c2.725-1.325,5.34-2.965,7.769-4.782c1.565-1.171,1.46-2.917-0.118-4.105
		c-1.178-0.886-2.672-1.592-4.116-1.831c-2.265-0.377-2.469-1.347-1.858-3.306c1.569-5.031,3.05-10.094,4.39-15.189
		c0.525-2,1.69-2.94,3.471-3.813c2.723-1.337,5.373-2.932,7.77-4.784c1.703-1.316,1.473-3.231-0.371-4.401
		c-1.316-0.835-2.922-1.317-4.466-1.655c-1.553-0.34-1.879-0.991-1.427-2.445l5.373-21.533c1.042,2.218,2.117,4.497,3.226,6.844
		c1.106,2.345,2.41,4.921,3.911,7.722c1.497,2.805,3.159,5.964,4.985,9.483c1.824,3.52,3.911,7.497,6.257,11.927l17.597,33.043
		c1.692,3.26,3.422,5.835,5.182,7.723c1.759,1.892,3.55,3.357,5.376,4.399c1.824,1.042,3.779,1.727,5.866,2.053
		c2.083,0.324,4.365,0.489,6.843,0.489c2.475,0,4.757-0.165,6.844-0.489c2.083-0.326,4.038-1.011,5.866-2.053
		c1.824-1.042,3.617-2.508,5.376-4.399c1.76-1.888,3.485-4.463,5.182-7.723l17.596-32.848c4.43-8.472,8.016-15.477,10.754-21.018
		c2.737-5.539,5.212-10.589,7.429-15.153c1.042,5.347,2.279,10.82,3.715,16.423c1.433,5.607,3.192,12.123,5.279,19.553
		l12.318,45.556h40.277l-33.043-114.965c-1.827-6.125-4.79-10.656-8.896-13.588c-4.106-2.933-8.701-4.399-13.785-4.399
		c-5.346,0-9.809,1.271-13.393,3.813c-3.586,2.542-6.55,5.899-8.896,10.069l-20.92,37.148c-2.869,5.084-5.377,9.517-7.528,13.295
		c-2.151,3.783-4.042,7.204-5.669,10.267c-1.632,3.063-3.065,5.801-4.302,8.211c-1.24,2.413-2.379,4.79-3.421,7.137
		c-1.173-2.347-2.38-4.757-3.617-7.234c-1.241-2.475-2.673-5.212-4.302-8.212c-1.631-2.997-3.52-6.418-5.67-10.266
		c-2.151-3.842-4.662-8.309-7.528-13.393l-20.92-36.953c-2.346-4.301-5.313-7.689-8.896-10.167
		c-3.586-2.475-7.986-3.715-13.198-3.715c-5.083,0-9.711,1.466-13.882,4.399c-4.173,2.933-7.17,7.463-8.994,13.588l-15.138,53.124
		c-0.192,0.669-0.278,1.371-0.475,2.375c6.736,0.076,13.184,0.302,19.801,2.244c-5.094,1.133-9.872,1.855-14.423,3.296
		c-5.396,1.707-10.653,3.904-15.851,6.166c-1.812,0.787-3.73,2.273-3.169,4.716c0.571,2.487,2.967,2.8,5.028,3.212
		c2.554,0.509,2.577,0.432,1.825,3.042c-0.984,3.429-1.981,6.852-3.054,10.559c6.871,0.031,13.359,0.331,20.313,2.107
		c-1.289,0.412-1.902,0.662-2.539,0.804c-5.615,1.247-11.343,2.126-16.818,3.823c-4.27,1.325-8.314,3.498-12.265,5.649
		c-1.089,0.593-2.254,2.646-2,3.69c0.299,1.228,1.982,2.32,3.301,3.036c1.145,0.622,2.619,0.635,4.223,0.977
		c-1.252,4.325-2.443,8.438-3.723,12.858c7.002,0,13.657,0.196,20.446,2.352c-0.902,0.234-1.446,0.397-1.999,0.514
		c-4.853,1.033-9.748,1.898-14.55,3.13c-5.314,1.36-10.535,3.097-15.084,6.313c-1.365,0.964-3.034,2.277-2.239,4.073
		c0.555,1.256,2.091,2.411,3.447,2.911c3.937,1.449,3.988,1.312,2.802,5.403c-0.719,2.479-1.437,4.96-2.257,7.794
		c6.945-0.212,13.271,0.233,19.935,2.103c-5.306,1.182-10.083,2.12-14.792,3.324c-5.598,1.433-11.106,3.189-15.969,6.447
		c-1.457,0.975-2.95,2.175-2.625,4.224c0.313,1.994,2.018,2.672,3.709,2.905c4.092,0.567,8.21,0.951,12.762,1.459
		c1.076,6.973,2.228,14.435,3.456,22.391c0.881-0.859,1.387-1.279,1.807-1.774c5.811-6.848,11.665-13.66,17.391-20.578
		C254.323,403.872,257.191,400.655,261.936,399.361z"/>
	<path fill="#FFFFFF" d="M283.311,366.153c-0.28,0.284-0.575,0.555-0.898,0.802c-2.036,1.555-5.152,3.805-8.705,5.384
		c-0.319,0.142-0.492,0.244-0.575,0.298c-0.021,0.057-0.051,0.147-0.085,0.284c-0.941,3.737-2.029,7.447-3.119,11.07
		c0.44,0.188,0.873,0.395,1.298,0.621c2.968,1.579,4.823,4.214,5.088,7.229c0.258,2.934-1.039,5.749-3.56,7.725
		c-2.468,1.933-5.539,4.336-9.297,5.364c-3.024,0.824-4.969,2.963-7.591,6.132c-0.689,0.832-1.386,1.665-2.081,2.498l1.191,4.573
		h485.319l7.454-51.98H283.311z"/>
</g>
</svg>
