<svg xmlns="http://www.w3.org/2000/svg" xmlns:xlink="http://www.w3.org/1999/xlink" width="500" zoomAndPan="magnify" viewBox="0 0 375 374.999991" height="500" preserveAspectRatio="xMidYMid meet" version="1.0"><rect x="-37.5" width="450" fill="#ffffff" y="-37.499999" height="449.999989" fill-opacity="1"/><rect x="-37.5" width="450" fill="#ffffff" y="-37.499999" height="449.999989" fill-opacity="1"/><path fill="#29086a" d="M 72.554688 194.179688 L 72.554688 245.769531 C 72.554688 248.210938 75.003906 249.859375 77.445312 249.859375 L 80.425781 249.859375 C 82.867188 249.859375 84.78125 248.210938 84.78125 245.769531 L 84.78125 193.171875 Z M 72.554688 194.179688 " fill-opacity="1" fill-rule="nonzero"/><path fill="#29086a" d="M 84.78125 141.867188 L 84.78125 134.417969 C 84.78125 131.980469 82.863281 130.023438 80.425781 130.023438 L 77.445312 130.023438 C 75.003906 130.023438 72.554688 131.980469 72.554688 134.417969 L 72.554688 145.367188 Z M 84.78125 141.867188 " fill-opacity="1" fill-rule="nonzero"/><path fill="#dd1c1a" d="M 27.625 194.851562 L 29.105469 161.621094 L 123.378906 133.050781 L 150.6875 149.480469 L 133.832031 186.03125 Z M 32.90625 164.597656 L 31.75 190.554688 L 131.222656 182.308594 L 145.644531 151.03125 L 122.835938 137.3125 Z M 32.90625 164.597656 " fill-opacity="1" fill-rule="nonzero"/><path fill="#29086a" d="M 140.140625 153.039062 L 128.363281 178.582031 L 35.464844 187.042969 L 36.457031 166.710938 L 121.265625 141.6875 Z M 140.140625 153.039062 " fill-opacity="1" fill-rule="nonzero"/><path fill="#dd1c1a" d="M 112.921875 208.445312 C 113.042969 207.96875 113.398438 207.554688 114.050781 207.554688 L 114.878906 207.554688 C 115.296875 207.554688 115.589844 207.792969 115.710938 208.148438 L 123.773438 235.011719 L 123.894531 235.011719 L 140.023438 208.148438 C 140.261719 207.792969 140.558594 207.554688 141.03125 207.554688 L 141.921875 207.554688 C 142.339844 207.554688 142.753906 207.96875 142.753906 208.445312 L 143.285156 248.296875 C 143.285156 249.128906 142.753906 249.660156 142.101562 249.660156 L 136.40625 249.660156 C 135.8125 249.660156 135.515625 249.1875 135.515625 248.769531 L 135.992188 227.480469 C 135.933594 227.480469 135.871094 227.480469 135.8125 227.480469 L 123.417969 249.601562 C 123.242188 249.957031 122.886719 250.253906 122.410156 250.253906 L 121.460938 250.253906 C 120.988281 250.253906 120.75 249.957031 120.632812 249.601562 L 114.582031 227.480469 C 114.582031 227.480469 114.523438 227.480469 114.464844 227.480469 L 108.769531 248.769531 C 108.652344 249.1875 108.355469 249.660156 107.644531 249.660156 L 102.007812 249.660156 C 101.355469 249.660156 100.941406 249.128906 101.179688 248.296875 Z M 112.921875 208.445312 " fill-opacity="1" fill-rule="nonzero"/><path fill="#dd1c1a" d="M 149.929688 248.117188 L 172.230469 208.207031 C 172.464844 207.792969 172.761719 207.554688 173.238281 207.554688 L 173.769531 207.554688 C 174.1875 207.554688 174.480469 207.851562 174.601562 208.207031 L 185.511719 248.117188 C 185.75 248.890625 185.214844 249.660156 184.386719 249.660156 L 179.226562 249.660156 C 178.335938 249.660156 177.863281 249.363281 177.683594 248.472656 L 176.203125 241.890625 L 161.4375 241.890625 L 157.996094 248.472656 C 157.699219 249.066406 157.046875 249.660156 156.097656 249.660156 L 150.640625 249.660156 C 149.8125 249.660156 149.515625 248.890625 149.929688 248.117188 Z M 174.304688 235.488281 L 171.515625 222.558594 L 171.398438 222.558594 L 164.933594 235.488281 Z M 174.304688 235.488281 " fill-opacity="1" fill-rule="nonzero"/><path fill="#dd1c1a" d="M 199.746094 209.570312 C 199.863281 208.796875 200.457031 208.148438 201.226562 208.148438 L 206.804688 208.148438 C 207.515625 208.148438 207.988281 208.796875 207.871094 209.570312 L 205.617188 225.582031 L 219.554688 209.214844 C 220.207031 208.441406 220.738281 208.148438 221.984375 208.148438 L 227.855469 208.148438 C 228.863281 208.148438 229.222656 209.214844 228.449219 210.101562 L 212.261719 228.25 L 224.238281 247.824219 C 224.65625 248.59375 224.0625 249.660156 223.054688 249.660156 L 217.65625 249.660156 C 216.53125 249.660156 216.054688 249.421875 215.523438 248.476562 L 204.964844 230.148438 L 202.414062 248.238281 C 202.355469 249.007812 201.644531 249.660156 200.992188 249.660156 L 195.417969 249.660156 C 194.644531 249.660156 194.230469 249.007812 194.289062 248.238281 Z M 199.746094 209.570312 " fill-opacity="1" fill-rule="nonzero"/><path fill="#dd1c1a" d="M 239.71875 209.273438 C 239.777344 208.679688 240.308594 208.148438 240.84375 208.148438 L 262.789062 208.148438 C 263.378906 208.148438 263.738281 208.679688 263.675781 209.273438 L 262.964844 214.136719 C 262.90625 214.730469 262.371094 215.261719 261.78125 215.261719 L 246.597656 215.261719 L 245.234375 224.988281 L 257.804688 224.988281 C 258.339844 224.988281 258.753906 225.523438 258.695312 226.117188 L 257.984375 231.039062 C 257.867188 231.691406 257.332031 232.164062 256.796875 232.164062 L 244.226562 232.164062 L 242.742188 242.542969 L 257.984375 242.542969 C 258.578125 242.542969 258.875 243.078125 258.816406 243.671875 L 258.164062 248.535156 C 258.101562 249.128906 257.570312 249.660156 256.976562 249.660156 L 235.035156 249.660156 C 234.441406 249.660156 234.085938 249.128906 234.203125 248.535156 Z M 239.71875 209.273438 " fill-opacity="1" fill-rule="nonzero"/><path fill="#dd1c1a" d="M 275.597656 209.273438 C 275.65625 208.679688 276.191406 208.148438 276.722656 208.148438 L 292.378906 208.148438 C 298.191406 208.148438 302.402344 213.128906 302.402344 219.238281 C 302.402344 226.472656 298.609375 231.15625 292.972656 232.9375 L 297.835938 248.117188 C 298.074219 248.890625 297.71875 249.660156 296.828125 249.660156 L 291.195312 249.660156 C 290.601562 249.660156 290.066406 249.421875 289.890625 248.710938 L 285.5625 233.410156 L 279.925781 233.410156 L 277.792969 248.535156 C 277.730469 249.125 277.199219 249.660156 276.664062 249.660156 L 270.910156 249.660156 C 270.320312 249.660156 269.964844 249.125 270.082031 248.535156 Z M 288.289062 227.066406 C 292.023438 227.066406 294.515625 223.921875 294.515625 220.1875 C 294.515625 217.515625 292.855469 215.261719 290.660156 215.261719 L 282.535156 215.261719 L 280.875 227.066406 Z M 288.289062 227.066406 " fill-opacity="1" fill-rule="nonzero"/><path fill="#dd1c1a" d="M 309.105469 243.847656 L 311.417969 240.46875 C 311.949219 239.640625 312.78125 239.816406 313.253906 240.230469 C 314.085938 240.941406 316.992188 243.316406 320.609375 243.316406 C 323.277344 243.316406 325.886719 241.238281 325.886719 238.273438 C 325.886719 235.664062 324.109375 233.945312 320.789062 231.75 C 316.875 229.199219 312.246094 225.820312 312.246094 219.890625 C 312.246094 213.960938 316.339844 207.554688 325.648438 207.554688 C 331.164062 207.554688 335.199219 210.402344 336.207031 211.410156 C 336.917969 212.121094 336.976562 212.949219 336.386719 213.78125 L 334.070312 217.042969 C 333.597656 217.753906 332.828125 217.8125 331.996094 217.160156 C 331.046875 216.390625 328.320312 214.550781 325.292969 214.550781 C 322.269531 214.550781 320.253906 216.863281 320.253906 219.175781 C 320.253906 221.550781 321.855469 222.734375 325.414062 225.109375 C 329.328125 227.71875 334.546875 230.980469 334.546875 237.503906 C 334.546875 244.441406 329.148438 250.253906 320.371094 250.253906 C 314.261719 250.253906 310.050781 246.695312 309.101562 245.628906 C 308.75 245.273438 308.453125 244.738281 309.105469 243.847656 Z M 309.105469 243.847656 " fill-opacity="1" fill-rule="nonzero"/><path fill="#29086a" d="M 153.324219 190.226562 L 156.851562 185.066406 C 157.664062 183.800781 158.933594 184.070312 159.65625 184.707031 C 160.921875 185.792969 165.355469 189.410156 170.875 189.410156 C 174.949219 189.410156 178.929688 186.242188 178.929688 181.71875 C 178.929688 177.738281 176.214844 175.113281 171.148438 171.765625 C 165.175781 167.875 158.117188 162.71875 158.117188 153.667969 C 158.117188 144.621094 164.359375 134.847656 178.566406 134.847656 C 186.980469 134.847656 193.136719 139.191406 194.671875 140.730469 C 195.757812 141.816406 195.851562 143.082031 194.945312 144.347656 L 191.417969 149.324219 C 190.691406 150.410156 189.515625 150.503906 188.25 149.507812 C 186.800781 148.332031 182.640625 145.527344 178.023438 145.527344 C 173.410156 145.527344 170.332031 149.054688 170.332031 152.582031 C 170.332031 156.203125 172.777344 158.011719 178.203125 161.632812 C 184.175781 165.613281 192.140625 170.589844 192.140625 180.542969 C 192.140625 191.128906 183.90625 199.996094 170.511719 199.996094 C 161.195312 199.996094 154.769531 194.566406 153.320312 192.9375 C 152.78125 192.398438 152.328125 191.582031 153.324219 190.226562 Z M 153.324219 190.226562 " fill-opacity="1" fill-rule="nonzero"/><path fill="#29086a" d="M 209.964844 137.472656 C 210.058594 136.566406 210.871094 135.753906 211.6875 135.753906 L 220.554688 135.753906 C 221.367188 135.753906 222 136.566406 221.820312 137.472656 L 213.40625 197.375 C 213.316406 198.277344 212.5 199.09375 211.683594 199.09375 L 202.816406 199.09375 C 202.003906 199.09375 201.371094 198.277344 201.550781 197.375 Z M 209.964844 137.472656 " fill-opacity="1" fill-rule="nonzero"/><path fill="#29086a" d="M 263.171875 134.847656 C 271.316406 134.847656 277.378906 138.015625 281.992188 143.445312 C 282.535156 144.167969 282.445312 145.253906 281.628906 145.980469 L 276.835938 150.683594 C 275.75 151.5 274.664062 151.5 273.847656 150.683594 C 271.496094 148.421875 268.148438 146.160156 262.539062 146.160156 C 251.679688 146.160156 242.269531 157.378906 242.269531 170.320312 C 242.269531 179.910156 248.332031 188.234375 256.292969 188.234375 C 260.546875 188.234375 263.804688 187.148438 265.523438 186.0625 L 266.609375 178.101562 L 260.816406 178.101562 C 259.914062 178.101562 259.371094 177.378906 259.460938 176.472656 L 260.457031 169.414062 C 260.636719 168.417969 261.359375 167.695312 262.265625 167.695312 L 278.28125 167.695312 C 279.09375 167.695312 279.636719 168.507812 279.546875 169.414062 L 276.5625 191.128906 C 276.382812 192.578125 275.746094 193.394531 275.113281 193.933594 C 274.210938 194.660156 267.0625 199.996094 254.847656 199.996094 C 240.097656 199.996094 229.421875 187.421875 229.421875 171.855469 C 229.421875 150.59375 244.261719 134.847656 263.171875 134.847656 Z M 263.171875 134.847656 " fill-opacity="1" fill-rule="nonzero"/><path fill="#29086a" d="M 297.195312 136.476562 C 297.285156 135.574219 298.101562 134.847656 298.914062 134.847656 L 301.269531 134.847656 L 328.867188 173.9375 L 328.957031 173.9375 L 333.84375 137.472656 C 333.933594 136.566406 334.65625 135.753906 335.5625 135.753906 L 344.339844 135.753906 C 345.152344 135.753906 345.785156 136.566406 345.695312 137.472656 L 337.101562 198.367188 C 337.007812 199.273438 336.195312 199.996094 335.378906 199.996094 L 332.9375 199.996094 L 305.429688 159.730469 L 305.339844 159.730469 L 300.453125 197.375 C 300.363281 198.277344 299.550781 199.09375 298.644531 199.09375 L 289.957031 199.09375 C 289.234375 199.09375 288.601562 198.367188 288.691406 197.554688 Z M 297.195312 136.476562 " fill-opacity="1" fill-rule="nonzero"/></svg>