<svg xmlns="http://www.w3.org/2000/svg" xmlns:xlink="http://www.w3.org/1999/xlink" width="1980" zoomAndPan="magnify" viewBox="0 0 1485 299.999988" height="400" preserveAspectRatio="xMidYMid meet" version="1.0"><path fill="#eb5416" d="M 390.097656 101.070312 L 381.496094 132.902344 C 379.925781 138.773438 378.535156 144.027344 377.332031 148.636719 C 376.125 153.25 375.101562 157.660156 374.265625 161.847656 C 373.425781 160.066406 372.5625 158.238281 371.671875 156.347656 C 370.78125 154.464844 369.757812 152.398438 368.609375 150.140625 C 367.453125 147.886719 366.144531 145.375 364.679688 142.597656 C 363.210938 139.820312 361.480469 136.597656 359.492188 132.929688 L 345.5 106.355469 C 344.136719 103.738281 342.75 101.671875 341.335938 100.148438 C 339.921875 98.628906 338.453125 97.453125 336.933594 96.609375 C 335.414062 95.773438 333.816406 95.222656 332.140625 94.960938 C 330.460938 94.699219 328.628906 94.566406 326.636719 94.566406 C 324.75 94.566406 322.96875 94.699219 321.292969 94.960938 C 319.613281 95.222656 318.015625 95.773438 316.5 96.609375 C 314.976562 97.449219 313.535156 98.628906 312.175781 100.148438 C 310.8125 101.671875 309.449219 103.738281 308.089844 106.355469 L 293.941406 132.769531 C 290.269531 139.585938 287.3125 145.21875 285.058594 149.671875 C 282.804688 154.128906 280.839844 158.1875 279.164062 161.855469 C 278.324219 157.558594 277.355469 153.15625 276.257812 148.648438 C 275.15625 144.140625 273.765625 138.875 272.089844 132.902344 L 262.1875 96.246094 L 240.433594 96.246094 C 237.550781 99.226562 234.863281 102.371094 232.375 105.675781 L 256.371094 188.714844 C 257.835938 193.640625 260.222656 197.292969 263.523438 199.652344 C 266.824219 202.011719 270.519531 203.199219 274.605469 203.199219 C 278.902344 203.199219 282.488281 202.175781 285.375 200.132812 C 288.253906 198.089844 290.640625 195.394531 292.523438 192.035156 L 309.34375 162.164062 C 311.648438 158.074219 313.640625 154.515625 315.316406 151.472656 C 316.992188 148.433594 318.484375 145.683594 319.796875 143.21875 C 321.105469 140.757812 322.257812 138.53125 323.253906 136.539062 C 324.25 134.546875 325.164062 132.609375 326.007812 130.722656 C 326.949219 132.609375 327.917969 134.546875 328.914062 136.539062 C 329.910156 138.53125 331.089844 140.757812 332.453125 143.21875 C 333.8125 145.683594 335.332031 148.460938 337.011719 151.554688 C 338.6875 154.644531 340.675781 158.234375 342.984375 162.320312 L 359.804688 192.039062 C 361.792969 195.496094 364.230469 198.222656 367.113281 200.214844 C 369.992188 202.203125 373.53125 203.203125 377.722656 203.203125 C 381.808594 203.203125 385.503906 202.023438 388.804688 199.664062 C 392.105469 197.304688 394.492188 193.640625 395.960938 188.714844 L 410.445312 139.453125 C 406.507812 125.414062 399.566406 112.242188 390.097656 101.070312 Z M 390.097656 101.070312 " fill-opacity="1" fill-rule="evenodd"/><path fill="#0a1045" d="M 411.40625 201.800781 L 441.128906 201.800781 C 445.328125 186.5 447.058594 171.261719 445.613281 155.808594 C 432.757812 152.871094 423.972656 145.921875 420.367188 133.546875 C 416.722656 121.0625 420.847656 110.449219 429.53125 101.429688 C 421.738281 87.390625 412.085938 75.476562 400.246094 65.21875 C 389.300781 72.375 378.0625 73.71875 366.671875 67.519531 C 355.292969 61.328125 350.335938 51.140625 350.40625 38.195312 C 335.039062 33.929688 319.65625 32.15625 304 33.550781 C 298.917969 59.074219 268.886719 69.757812 249.550781 49.691406 C 235.886719 57.34375 223.609375 66.742188 213.539062 79.128906 C 220.371094 89.6875 221.726562 100.570312 216.289062 111.449219 C 217.960938 114.160156 219.519531 116.9375 220.949219 119.777344 C 225.882812 109.984375 232.359375 100.953125 240.210938 93.101562 C 259.609375 73.699219 286.238281 62.660156 313.691406 62.660156 C 341.140625 62.660156 367.769531 73.699219 387.171875 93.101562 C 406.570312 112.503906 417.605469 139.140625 417.605469 166.59375 C 417.605469 178.675781 415.457031 190.589844 411.40625 201.800781 Z M 411.40625 201.800781 " fill-opacity="1" fill-rule="evenodd"/><path fill="#eb5416" d="M 90.210938 135.914062 C 91.050781 137.699219 91.914062 139.53125 92.804688 141.414062 C 93.695312 143.300781 94.742188 145.371094 95.949219 147.625 C 97.152344 149.882812 98.488281 152.421875 99.957031 155.25 C 101.421875 158.082031 103.101562 161.277344 104.988281 164.84375 L 119.132812 191.410156 C 120.496094 194.03125 121.886719 196.101562 123.300781 197.621094 C 124.714844 199.140625 126.152344 200.320312 127.621094 201.160156 C 129.089844 202 130.660156 202.546875 132.339844 202.808594 C 134.015625 203.070312 135.847656 203.203125 137.839844 203.203125 C 139.828125 203.203125 141.664062 203.070312 143.339844 202.808594 C 145.015625 202.546875 146.589844 201.996094 148.058594 201.160156 C 149.523438 200.320312 150.964844 199.140625 152.378906 197.621094 C 153.792969 196.101562 155.179688 194.03125 156.546875 191.410156 L 170.691406 165 C 174.253906 158.183594 177.136719 152.554688 179.339844 148.097656 C 181.539062 143.644531 183.527344 139.582031 185.3125 135.914062 C 186.148438 140.214844 187.144531 144.613281 188.296875 149.121094 C 189.449219 153.628906 190.863281 158.867188 192.542969 164.84375 L 202.445312 201.476562 L 234.828125 201.476562 L 208.261719 109.03125 C 206.792969 104.105469 204.410156 100.460938 201.109375 98.105469 C 197.808594 95.746094 194.113281 94.566406 190.027344 94.566406 C 185.726562 94.566406 182.136719 95.585938 179.257812 97.632812 C 176.375 99.675781 173.992188 102.378906 172.105469 105.730469 L 155.289062 135.601562 C 152.980469 139.691406 150.964844 143.253906 149.234375 146.292969 C 147.507812 149.332031 145.984375 152.082031 144.679688 154.546875 C 143.363281 157.011719 142.214844 159.214844 141.21875 161.148438 C 140.21875 163.09375 139.304688 165.003906 138.46875 166.886719 C 137.523438 165.003906 136.554688 163.0625 135.558594 161.070312 C 134.5625 159.082031 133.410156 156.882812 132.101562 154.46875 C 130.789062 152.058594 129.269531 149.308594 127.542969 146.214844 C 125.816406 143.125 123.792969 139.535156 121.492188 135.445312 L 104.671875 105.730469 C 102.785156 102.269531 100.402344 99.542969 97.519531 97.554688 C 94.636719 95.566406 91.097656 94.566406 86.910156 94.566406 C 82.820312 94.566406 79.101562 95.742188 75.746094 98.105469 C 72.394531 100.460938 69.980469 104.105469 68.515625 109.03125 L 56.347656 151.75 C 56.191406 152.285156 56.121094 152.851562 55.964844 153.65625 C 61.378906 153.71875 66.5625 153.898438 71.882812 155.460938 C 67.789062 156.371094 63.945312 156.953125 60.285156 158.109375 C 55.949219 159.484375 51.722656 161.25 47.542969 163.070312 C 46.085938 163.703125 44.546875 164.894531 44.996094 166.859375 C 45.453125 168.859375 47.382812 169.113281 49.039062 169.445312 C 51.09375 169.851562 51.109375 169.792969 50.507812 171.890625 C 49.714844 174.644531 48.914062 177.398438 48.050781 180.378906 C 53.574219 180.40625 58.789062 180.648438 64.382812 182.074219 C 63.34375 182.40625 62.851562 182.609375 62.339844 182.722656 C 57.824219 183.722656 53.21875 184.429688 48.820312 185.792969 C 45.386719 186.863281 42.132812 188.609375 38.957031 190.339844 C 38.082031 190.8125 37.144531 192.464844 37.351562 193.304688 C 37.589844 194.292969 38.945312 195.171875 40.003906 195.746094 C 40.925781 196.246094 42.113281 196.257812 43.398438 196.53125 C 42.394531 200.007812 41.433594 203.316406 40.40625 206.871094 C 46.035156 206.871094 51.386719 207.027344 56.847656 208.757812 C 56.121094 208.949219 55.683594 209.082031 55.238281 209.175781 C 51.335938 210.007812 47.402344 210.703125 43.542969 211.691406 C 39.269531 212.785156 35.074219 214.179688 31.414062 216.765625 C 30.316406 217.539062 28.976562 218.597656 29.613281 220.039062 C 30.0625 221.050781 31.296875 221.980469 32.386719 222.382812 C 35.550781 223.546875 35.589844 223.4375 34.636719 226.726562 C 34.058594 228.722656 33.484375 230.71875 32.824219 232.992188 C 38.40625 232.824219 43.492188 233.183594 48.851562 234.683594 C 44.585938 235.636719 40.746094 236.390625 36.957031 237.359375 C 32.457031 238.511719 28.03125 239.921875 24.121094 242.542969 C 22.949219 243.328125 21.75 244.292969 22.007812 245.9375 C 22.261719 247.542969 23.632812 248.085938 24.992188 248.273438 C 28.28125 248.730469 31.589844 249.039062 35.25 249.449219 C 36.117188 255.054688 37.042969 261.058594 38.027344 267.453125 C 38.738281 266.761719 39.144531 266.421875 39.480469 266.023438 C 44.152344 260.519531 48.859375 255.042969 53.464844 249.476562 C 55.796875 246.65625 58.105469 244.070312 61.921875 243.03125 C 64.035156 242.449219 65.972656 240.933594 67.753906 239.539062 C 69.457031 238.207031 69.140625 236.292969 67.207031 235.269531 C 66.292969 234.78125 65.226562 234.429688 64.199219 234.332031 C 62.726562 234.191406 62.621094 233.566406 62.988281 232.34375 C 64.164062 228.457031 65.359375 224.570312 66.347656 220.632812 C 66.816406 218.789062 67.761719 217.832031 69.496094 217.0625 C 71.65625 216.101562 73.671875 214.726562 75.5625 213.28125 C 76.730469 212.394531 76.671875 210.714844 75.601562 210.070312 C 74.417969 209.355469 73.085938 208.679688 71.746094 208.503906 C 70.355469 208.316406 70.027344 207.996094 70.429688 206.660156 C 71.730469 202.347656 73.023438 198.035156 74.15625 193.679688 C 74.589844 192.007812 75.515625 191.195312 77.011719 190.46875 C 79.203125 189.402344 81.304688 188.082031 83.257812 186.625 C 84.515625 185.679688 84.429688 184.277344 83.164062 183.320312 C 82.214844 182.609375 81.015625 182.039062 79.855469 181.847656 C 78.035156 181.542969 77.871094 180.765625 78.359375 179.1875 C 79.625 175.140625 80.8125 171.074219 81.890625 166.976562 C 82.3125 165.367188 83.246094 164.609375 84.679688 163.90625 C 86.871094 162.832031 89 161.550781 90.925781 160.0625 C 92.296875 159.003906 92.109375 157.464844 90.628906 156.519531 C 89.570312 155.847656 88.277344 155.460938 87.039062 155.191406 C 85.789062 154.917969 85.527344 154.394531 85.886719 153.226562 " fill-opacity="1" fill-rule="evenodd"/><path fill="#0a1045" d="M 79.105469 216.328125 C 78.878906 216.554688 78.644531 216.773438 78.382812 216.972656 C 76.746094 218.222656 74.242188 220.03125 71.382812 221.304688 C 71.128906 221.417969 70.988281 221.5 70.921875 221.542969 C 70.902344 221.585938 70.878906 221.660156 70.851562 221.769531 C 70.09375 224.773438 69.21875 227.761719 68.34375 230.671875 C 68.695312 230.820312 69.046875 230.988281 69.386719 231.171875 C 71.773438 232.441406 73.265625 234.5625 73.476562 236.984375 C 73.683594 239.34375 72.640625 241.605469 70.613281 243.195312 C 68.628906 244.75 66.160156 246.683594 63.140625 247.507812 C 60.707031 248.171875 59.144531 249.890625 57.039062 252.4375 C 56.484375 253.109375 55.921875 253.777344 55.363281 254.449219 L 56.320312 258.125 L 446.5 258.125 L 452.492188 216.328125 Z M 79.105469 216.328125 " fill-opacity="1" fill-rule="nonzero"/><path fill="#000000" d="M 505.777344 168.4375 C 506.984375 170.578125 508.042969 172.460938 508.945312 174.078125 C 509.851562 175.695312 510.648438 177.140625 511.335938 178.402344 C 512.019531 179.664062 512.621094 180.820312 513.144531 181.863281 C 513.664062 182.90625 514.175781 183.917969 514.667969 184.90625 C 515.105469 183.917969 515.585938 182.917969 516.109375 181.90625 C 516.628906 180.886719 517.234375 179.734375 517.921875 178.445312 C 518.605469 177.152344 519.402344 175.714844 520.308594 174.121094 C 521.214844 172.527344 522.269531 170.660156 523.476562 168.519531 L 532.289062 152.871094 C 533.277344 151.117188 534.523438 149.703125 536.035156 148.632812 C 537.542969 147.5625 539.425781 147.027344 541.675781 147.027344 C 543.816406 147.027344 545.75 147.644531 547.480469 148.878906 C 549.207031 150.113281 550.457031 152.023438 551.222656 154.601562 L 565.140625 203.027344 L 548.179688 203.027344 L 542.992188 183.835938 C 542.113281 180.707031 541.371094 177.964844 540.769531 175.601562 C 540.167969 173.242188 539.644531 170.933594 539.207031 168.683594 C 538.273438 170.605469 537.230469 172.734375 536.078125 175.066406 C 534.921875 177.398438 533.414062 180.351562 531.550781 183.917969 L 524.140625 197.757812 C 523.425781 199.128906 522.695312 200.214844 521.957031 201.007812 C 521.214844 201.804688 520.460938 202.421875 519.691406 202.863281 C 518.921875 203.300781 518.097656 203.589844 517.21875 203.726562 C 516.339844 203.859375 515.378906 203.929688 514.339844 203.929688 C 513.296875 203.929688 512.332031 203.859375 511.457031 203.726562 C 510.578125 203.589844 509.753906 203.300781 508.988281 202.863281 C 508.21875 202.421875 507.460938 201.804688 506.722656 201.007812 C 505.980469 200.214844 505.25 199.128906 504.539062 197.757812 L 497.128906 183.835938 C 496.140625 181.96875 495.261719 180.292969 494.492188 178.8125 C 493.726562 177.332031 493.023438 176 492.394531 174.820312 C 491.761719 173.640625 491.214844 172.554688 490.746094 171.570312 C 490.28125 170.578125 489.828125 169.617188 489.386719 168.683594 C 488.949219 170.878906 488.425781 173.171875 487.824219 175.5625 C 487.21875 177.949219 486.507812 180.710938 485.683594 183.835938 L 480.496094 203.027344 L 463.78125 203.027344 L 478.027344 154.601562 C 478.796875 152.023438 480.058594 150.113281 481.816406 148.878906 C 483.574219 147.644531 485.523438 147.027344 487.664062 147.027344 C 489.855469 147.027344 491.707031 147.546875 493.21875 148.589844 C 494.730469 149.632812 495.976562 151.0625 496.964844 152.871094 Z M 505.777344 168.4375 " fill-opacity="1" fill-rule="nonzero"/><path fill="#000000" d="M 635.375 188.859375 L 624.425781 203.023438 L 571.398438 203.023438 L 571.398438 147.929688 L 635.210938 147.929688 L 624.179688 162.257812 L 588.527344 162.257812 L 588.527344 168.84375 L 632.164062 168.84375 L 622.367188 181.363281 L 588.527344 181.363281 L 588.527344 188.855469 L 635.375 188.855469 Z M 635.375 188.859375 " fill-opacity="1" fill-rule="nonzero"/><path fill="#000000" d="M 709.644531 147.929688 L 698.609375 162.261719 L 678.933594 162.261719 L 678.933594 203.023438 L 661.890625 203.023438 L 661.890625 162.261719 L 636.035156 162.261719 L 647.066406 147.929688 Z M 709.644531 147.929688 " fill-opacity="1" fill-rule="nonzero"/><path fill="#000000" d="M 720.757812 203.027344 L 731.050781 188.863281 L 744.882812 188.863281 C 746.53125 188.863281 748.246094 188.863281 750.03125 188.863281 C 751.816406 188.863281 753.367188 188.917969 754.683594 189.027344 C 753.917969 188.039062 753.023438 186.789062 752.007812 185.28125 C 750.996094 183.773438 750.019531 182.359375 749.085938 181.039062 L 739.207031 166.464844 L 713.351562 203.027344 L 693.179688 203.027344 L 728.503906 153.203125 C 729.65625 151.613281 731.109375 150.1875 732.867188 148.921875 C 734.621094 147.660156 736.84375 147.027344 739.535156 147.027344 C 742.113281 147.027344 744.269531 147.621094 746 148.800781 C 747.726562 149.980469 749.195312 151.449219 750.40625 153.203125 L 784.820312 203.027344 Z M 720.757812 203.027344 " fill-opacity="1" fill-rule="nonzero"/><path fill="#000000" d="M 850.605469 188.859375 L 839.574219 203.023438 L 790.910156 203.023438 L 790.910156 147.929688 L 807.953125 147.929688 L 807.953125 188.859375 Z M 850.605469 188.859375 " fill-opacity="1" fill-rule="nonzero"/><path fill="#000000" d="M 943.070312 182.519531 C 941.863281 180.378906 940.816406 178.5 939.941406 176.882812 C 939.0625 175.261719 938.265625 173.808594 937.554688 172.515625 C 936.839844 171.226562 936.222656 170.058594 935.703125 169.015625 C 935.179688 167.972656 934.671875 166.957031 934.179688 165.96875 C 933.738281 166.957031 933.257812 167.972656 932.734375 169.015625 C 932.214844 170.058594 931.609375 171.226562 930.925781 172.515625 C 930.238281 173.808594 929.457031 175.246094 928.578125 176.839844 C 927.699219 178.433594 926.65625 180.296875 925.449219 182.441406 L 916.636719 198.089844 C 915.648438 199.847656 914.402344 201.257812 912.890625 202.328125 C 911.382812 203.402344 909.5 203.933594 907.253906 203.933594 C 905.113281 203.933594 903.175781 203.320312 901.449219 202.078125 C 899.71875 200.84375 898.46875 198.9375 897.703125 196.359375 L 883.703125 147.933594 L 900.746094 147.933594 L 905.933594 167.125 C 906.8125 170.253906 907.539062 173 908.117188 175.359375 C 908.691406 177.71875 909.199219 180.027344 909.640625 182.277344 C 910.519531 180.355469 911.546875 178.230469 912.726562 175.894531 C 913.90625 173.5625 915.457031 170.609375 917.378906 167.042969 L 924.789062 153.207031 C 925.503906 151.835938 926.214844 150.75 926.929688 149.953125 C 927.640625 149.15625 928.398438 148.539062 929.195312 148.101562 C 929.988281 147.660156 930.828125 147.375 931.707031 147.238281 C 932.585938 147.101562 933.519531 147.03125 934.507812 147.03125 C 935.546875 147.03125 936.511719 147.101562 937.390625 147.238281 C 938.265625 147.375 939.105469 147.660156 939.902344 148.101562 C 940.695312 148.539062 941.464844 149.15625 942.207031 149.953125 C 942.949219 150.75 943.675781 151.835938 944.390625 153.207031 L 951.71875 167.125 C 952.757812 169.046875 953.664062 170.734375 954.433594 172.191406 C 955.203125 173.648438 955.886719 174.960938 956.492188 176.140625 C 957.09375 177.320312 957.632812 178.40625 958.097656 179.394531 C 958.5625 180.378906 959.015625 181.34375 959.457031 182.277344 C 959.894531 180.082031 960.433594 177.777344 961.0625 175.359375 C 961.695312 172.945312 962.421875 170.199219 963.246094 167.125 L 968.433594 147.933594 L 985.066406 147.933594 L 970.820312 196.359375 C 970.054688 198.941406 968.804688 200.847656 967.078125 202.078125 C 965.347656 203.316406 963.410156 203.933594 961.273438 203.933594 C 959.078125 203.933594 957.222656 203.414062 955.714844 202.367188 C 954.207031 201.328125 952.929688 199.898438 951.886719 198.089844 Z M 943.070312 182.519531 " fill-opacity="1" fill-rule="nonzero"/><path fill="#000000" d="M 1026.890625 147.027344 C 1040.285156 147.027344 1050.34375 149.304688 1057.070312 153.859375 C 1063.792969 158.421875 1067.15625 165.609375 1067.15625 175.4375 C 1067.15625 185.320312 1063.808594 192.542969 1057.113281 197.097656 C 1050.414062 201.65625 1040.34375 203.933594 1026.894531 203.933594 C 1013.390625 203.933594 1003.304688 201.65625 996.632812 197.097656 C 989.96875 192.542969 986.628906 185.320312 986.628906 175.4375 C 986.628906 165.609375 989.976562 158.421875 996.675781 153.859375 C 1003.371094 149.304688 1013.445312 147.027344 1026.890625 147.027344 Z M 1026.890625 189.601562 C 1031.175781 189.601562 1034.796875 189.425781 1037.761719 189.066406 C 1040.726562 188.710938 1043.125 188.011719 1044.96875 186.96875 C 1046.804688 185.925781 1048.136719 184.484375 1048.960938 182.644531 C 1049.785156 180.804688 1050.195312 178.402344 1050.195312 175.4375 C 1050.195312 172.472656 1049.785156 170.070312 1048.960938 168.230469 C 1048.136719 166.390625 1046.804688 164.964844 1044.96875 163.949219 C 1043.125 162.933594 1040.726562 162.246094 1037.761719 161.890625 C 1034.796875 161.535156 1031.175781 161.355469 1026.890625 161.355469 C 1022.609375 161.355469 1018.988281 161.535156 1016.023438 161.890625 C 1013.058594 162.246094 1010.65625 162.933594 1008.816406 163.949219 C 1006.976562 164.964844 1005.648438 166.390625 1004.824219 168.230469 C 1004 170.070312 1003.589844 172.472656 1003.589844 175.4375 C 1003.589844 178.402344 1004 180.804688 1004.824219 182.644531 C 1005.648438 184.484375 1006.976562 185.925781 1008.816406 186.96875 C 1010.65625 188.011719 1013.058594 188.710938 1016.023438 189.066406 C 1018.988281 189.425781 1022.609375 189.601562 1026.890625 189.601562 Z M 1026.890625 189.601562 " fill-opacity="1" fill-rule="nonzero"/><path fill="#000000" d="M 1153.941406 203.027344 L 1131.136719 203.027344 L 1118.867188 188.449219 L 1092.683594 188.449219 L 1092.683594 203.027344 L 1075.640625 203.027344 L 1075.640625 174.859375 L 1123.558594 174.859375 C 1126.195312 174.859375 1128.414062 174.316406 1130.226562 173.214844 C 1132.039062 172.117188 1132.945312 170.609375 1132.945312 168.6875 C 1132.945312 166.546875 1132.121094 164.9375 1130.472656 163.867188 C 1128.828125 162.796875 1126.523438 162.261719 1123.558594 162.261719 L 1075.640625 162.261719 L 1086.753906 147.933594 L 1122.160156 147.933594 C 1125.289062 147.933594 1128.527344 148.21875 1131.875 148.800781 C 1135.222656 149.375 1138.269531 150.402344 1141.011719 151.886719 C 1143.757812 153.367188 1146.023438 155.375 1147.808594 157.898438 C 1149.589844 160.421875 1150.480469 163.664062 1150.480469 167.617188 C 1150.480469 169.753906 1150.152344 171.789062 1149.492188 173.710938 C 1148.832031 175.632812 1147.886719 177.359375 1146.65625 178.898438 C 1145.417969 180.4375 1143.90625 181.738281 1142.125 182.8125 C 1140.339844 183.882812 1138.324219 184.636719 1136.074219 185.074219 C 1137.003906 185.789062 1138.050781 186.695312 1139.203125 187.792969 C 1140.355469 188.890625 1141.890625 190.402344 1143.8125 192.324219 Z M 1153.941406 203.027344 " fill-opacity="1" fill-rule="nonzero"/><path fill="#000000" d="M 1229.527344 203.027344 L 1203.753906 203.027344 L 1187.121094 188.535156 C 1184.269531 186.0625 1182.085938 184.140625 1180.574219 182.769531 C 1179.066406 181.394531 1177.84375 180.246094 1176.914062 179.308594 C 1176.964844 180.570312 1177.023438 181.875 1177.078125 183.21875 C 1177.132812 184.566406 1177.160156 185.894531 1177.160156 187.214844 L 1177.160156 203.027344 L 1160.035156 203.027344 L 1160.035156 147.929688 L 1177.160156 147.929688 L 1177.160156 160.695312 C 1177.160156 162.402344 1177.132812 164.074219 1177.078125 165.71875 C 1177.023438 167.367188 1176.941406 168.90625 1176.832031 170.332031 C 1177.925781 169.339844 1179.257812 168.125 1180.824219 166.667969 C 1182.386719 165.210938 1184.433594 163.441406 1186.957031 161.355469 L 1202.847656 147.929688 L 1227.550781 147.929688 L 1206.46875 163.742188 C 1204.660156 165.117188 1203.054688 166.324219 1201.652344 167.367188 C 1200.253906 168.414062 1199.003906 169.316406 1197.90625 170.085938 C 1196.808594 170.855469 1195.804688 171.542969 1194.902344 172.144531 C 1193.996094 172.75 1193.105469 173.324219 1192.226562 173.871094 C 1193.820312 174.972656 1195.738281 176.34375 1197.992188 177.988281 C 1200.242188 179.636719 1203.148438 181.917969 1206.71875 184.824219 Z M 1229.527344 203.027344 " fill-opacity="1" fill-rule="nonzero"/><path fill="#000000" d="M 1299.101562 188.859375 L 1288.152344 203.023438 L 1235.125 203.023438 L 1235.125 147.929688 L 1298.9375 147.929688 L 1287.90625 162.257812 L 1252.253906 162.257812 L 1252.253906 168.84375 L 1295.890625 168.84375 L 1286.09375 181.363281 L 1252.253906 181.363281 L 1252.253906 188.855469 L 1299.101562 188.855469 Z M 1299.101562 188.859375 " fill-opacity="1" fill-rule="nonzero"/><path fill="#000000" d="M 1383.089844 203.027344 L 1360.28125 203.027344 L 1348.015625 188.449219 L 1321.832031 188.449219 L 1321.832031 203.027344 L 1304.785156 203.027344 L 1304.785156 174.859375 L 1352.707031 174.859375 C 1355.34375 174.859375 1357.5625 174.316406 1359.375 173.214844 C 1361.1875 172.117188 1362.09375 170.609375 1362.09375 168.6875 C 1362.09375 166.546875 1361.269531 164.9375 1359.621094 163.867188 C 1357.976562 162.796875 1355.671875 162.261719 1352.707031 162.261719 L 1304.785156 162.261719 L 1315.902344 147.933594 L 1351.308594 147.933594 C 1354.4375 147.933594 1357.675781 148.21875 1361.023438 148.800781 C 1364.371094 149.375 1367.417969 150.402344 1370.160156 151.886719 C 1372.90625 153.367188 1375.171875 155.375 1376.953125 157.898438 C 1378.738281 160.421875 1379.628906 163.664062 1379.628906 167.617188 C 1379.628906 169.753906 1379.300781 171.789062 1378.640625 173.710938 C 1377.980469 175.632812 1377.035156 177.359375 1375.800781 178.898438 C 1374.566406 180.4375 1373.054688 181.738281 1371.273438 182.8125 C 1369.488281 183.882812 1367.472656 184.636719 1365.21875 185.074219 C 1366.152344 185.789062 1367.195312 186.695312 1368.351562 187.792969 C 1369.503906 188.890625 1371.039062 190.402344 1372.960938 192.324219 Z M 1383.089844 203.027344 " fill-opacity="1" fill-rule="nonzero"/><path fill="#000000" d="M 1440.230469 169.917969 C 1446.980469 169.917969 1452.113281 171.167969 1455.628906 173.667969 C 1459.140625 176.167969 1460.898438 179.941406 1460.898438 184.988281 C 1460.898438 187.792969 1460.460938 190.316406 1459.582031 192.570312 C 1458.703125 194.820312 1457.304688 196.714844 1455.382812 198.25 C 1453.460938 199.789062 1451.003906 200.964844 1448.011719 201.789062 C 1445.019531 202.617188 1441.4375 203.027344 1437.269531 203.027344 L 1385.972656 203.027344 L 1396.921875 188.863281 L 1438.585938 188.863281 C 1440.617188 188.863281 1442.097656 188.546875 1443.03125 187.917969 C 1443.964844 187.285156 1444.429688 186.257812 1444.429688 184.828125 C 1444.429688 183.402344 1443.964844 182.386719 1443.03125 181.78125 C 1442.097656 181.175781 1440.617188 180.875 1438.585938 180.875 L 1408.617188 180.875 C 1405.046875 180.875 1401.972656 180.492188 1399.394531 179.71875 C 1396.8125 178.953125 1394.671875 177.882812 1392.972656 176.507812 C 1391.269531 175.136719 1390.007812 173.476562 1389.183594 171.527344 C 1388.359375 169.578125 1387.949219 167.421875 1387.949219 165.058594 C 1387.949219 162.480469 1388.402344 160.132812 1389.308594 158.019531 C 1390.214844 155.90625 1391.613281 154.105469 1393.507812 152.625 C 1395.398438 151.144531 1397.839844 149.988281 1400.835938 149.167969 C 1403.824219 148.34375 1407.410156 147.929688 1411.578125 147.929688 L 1459.414062 147.929688 L 1448.464844 162.261719 L 1410.257812 162.261719 C 1408.285156 162.261719 1406.816406 162.535156 1405.851562 163.085938 C 1404.894531 163.632812 1404.414062 164.621094 1404.414062 166.050781 C 1404.414062 167.476562 1404.894531 168.480469 1405.851562 169.054688 C 1406.816406 169.628906 1408.285156 169.917969 1410.257812 169.917969 Z M 1440.230469 169.917969 " fill-opacity="1" fill-rule="nonzero"/></svg>