<?xml version="1.0" encoding="utf-8"?>
<!-- Generator: Adobe Illustrator 16.0.0, SVG Export Plug-In . SVG Version: 6.00 Build 0)  -->
<!DOCTYPE svg PUBLIC "-//W3C//DTD SVG 1.1//EN" "http://www.w3.org/Graphics/SVG/1.1/DTD/svg11.dtd">
<svg version="1.1" id="Layer_1" xmlns="http://www.w3.org/2000/svg" xmlns:xlink="http://www.w3.org/1999/xlink" x="0px" y="0px"
	 width="780px" height="160px" viewBox="0 0 780 160" enable-background="new 0 0 780 160" xml:space="preserve">
<g>
	<g>
		<path fill="#FFFFFF" d="M110.294,128.247c0.094,0.146,0.187,0.294,0.281,0.441c0.417-0.769,0.827-1.524,1.24-2.287
			C111.321,127.025,110.815,127.643,110.294,128.247z"/>
		<path fill="#FFFFFF" d="M206.518,54.314l-4.491,16.621c-0.821,3.066-1.547,5.811-2.175,8.217c-0.63,2.409-1.164,4.709-1.601,6.898
			c-0.438-0.93-0.89-1.886-1.354-2.872c-0.466-0.984-1-2.063-1.601-3.243c-0.603-1.176-1.287-2.488-2.052-3.938
			c-0.767-1.449-1.67-3.133-2.708-5.049l-7.307-13.875c-0.712-1.366-1.437-2.446-2.176-3.241c-0.738-0.793-1.505-1.408-2.298-1.847
			c-0.794-0.438-1.629-0.726-2.504-0.862c-0.876-0.136-1.834-0.205-2.874-0.205c-0.985,0-1.916,0.069-2.791,0.205
			c-0.876,0.138-1.711,0.425-2.503,0.862c-0.794,0.438-1.547,1.054-2.257,1.847c-0.712,0.795-1.424,1.875-2.135,3.241l-7.388,13.793
			c-1.917,3.558-3.462,6.498-4.639,8.824c-1.177,2.327-2.204,4.446-3.079,6.361c-0.438-2.241-0.944-4.542-1.518-6.896
			c-0.575-2.354-1.301-5.103-2.176-8.221l-5.171-19.141h-11.362c-1.504,1.555-2.908,3.197-4.208,4.924l12.532,43.358
			c0.766,2.572,2.011,4.479,3.735,5.711c1.724,1.231,3.653,1.852,5.788,1.852c2.243,0,4.117-0.532,5.623-1.6
			c1.504-1.068,2.75-2.477,3.735-4.229l8.784-15.598c1.203-2.135,2.243-3.994,3.119-5.582c0.875-1.587,1.654-3.024,2.339-4.311
			c0.684-1.284,1.285-2.447,1.806-3.488c0.52-1.039,0.998-2.053,1.437-3.037c0.493,0.984,0.998,1.998,1.519,3.037
			c0.52,1.041,1.136,2.204,1.847,3.488c0.711,1.287,1.504,2.738,2.381,4.352c0.875,1.615,1.915,3.488,3.119,5.623l8.785,15.516
			c1.039,1.808,2.311,3.229,3.816,4.271c1.505,1.039,3.352,1.56,5.542,1.56c2.134,0,4.063-0.614,5.787-1.847
			c1.724-1.23,2.969-3.146,3.736-5.718l7.565-25.721C215.087,67.025,211.463,60.148,206.518,54.314z"/>
		<path fill="#FFFFFF" d="M217.647,106.91h15.521c2.193-7.989,3.096-15.945,2.343-24.014c-6.714-1.533-11.303-5.163-13.186-11.624
			c-1.902-6.521,0.252-12.063,4.787-16.771c-4.07-7.332-9.112-13.553-15.294-18.908c-5.716,3.736-11.585,4.438-17.534,1.202
			c-5.943-3.233-8.532-8.552-8.495-15.312c-8.025-2.228-16.059-3.154-24.234-2.426c-2.654,13.326-18.337,18.904-28.436,8.428
			c-7.136,3.996-13.547,8.904-18.806,15.371c3.567,5.514,4.276,11.194,1.436,16.875c0.872,1.416,1.686,2.867,2.433,4.35
			c2.577-5.113,5.96-9.83,10.059-13.93c10.131-10.131,24.038-15.896,38.374-15.896s28.243,5.765,38.374,15.896
			c10.131,10.132,15.895,24.039,15.895,38.375C220.885,94.835,219.762,101.056,217.647,106.91z"/>
		<path fill="#FFFFFF" d="M49.908,72.507c0.438,0.932,0.889,1.889,1.354,2.873c0.464,0.984,1.012,2.066,1.642,3.242
			c0.628,1.178,1.326,2.504,2.093,3.983c0.766,1.478,1.642,3.146,2.627,5.008l7.388,13.873c0.711,1.367,1.437,2.448,2.176,3.241
			c0.739,0.793,1.49,1.409,2.257,1.849c0.766,0.438,1.586,0.725,2.463,0.859c0.875,0.139,1.833,0.205,2.873,0.205
			c1.039,0,1.997-0.066,2.873-0.205c0.875-0.137,1.696-0.424,2.463-0.859c0.766-0.438,1.519-1.056,2.257-1.849
			c0.739-0.793,1.463-1.874,2.176-3.241l7.388-13.791c1.86-3.56,3.366-6.498,4.515-8.826c1.149-2.325,2.188-4.446,3.119-6.362
			c0.438,2.245,0.957,4.543,1.56,6.896c0.602,2.354,1.34,5.09,2.217,8.209l5.171,19.128h16.911l-13.874-48.272
			c-0.767-2.571-2.011-4.476-3.735-5.705c-1.724-1.231-3.653-1.848-5.788-1.848c-2.245,0-4.119,0.532-5.623,1.603
			c-1.506,1.065-2.75,2.477-3.735,4.227l-8.783,15.598c-1.205,2.137-2.258,3.996-3.161,5.582c-0.903,1.588-1.697,3.024-2.38,4.313
			c-0.686,1.285-1.287,2.436-1.807,3.447c-0.521,1.014-0.999,2.012-1.436,2.994c-0.493-0.982-1-1.997-1.519-3.035
			c-0.521-1.039-1.122-2.188-1.806-3.447c-0.685-1.26-1.478-2.696-2.38-4.313c-0.903-1.611-1.958-3.486-3.161-5.623l-8.784-15.516
			c-0.985-1.807-2.23-3.229-3.735-4.268c-1.506-1.039-3.353-1.562-5.541-1.562c-2.135,0-4.078,0.614-5.829,1.848
			c-1.752,1.229-3.011,3.134-3.776,5.705l-6.356,22.306c-0.081,0.279-0.117,0.575-0.199,0.996c2.828,0.031,5.535,0.127,8.313,0.942
			c-2.139,0.476-4.145,0.778-6.056,1.383c-2.266,0.718-4.473,1.642-6.655,2.591c-0.761,0.329-1.566,0.952-1.331,1.979
			c0.24,1.044,1.246,1.175,2.111,1.349c1.073,0.214,1.082,0.183,0.767,1.277c-0.414,1.438-0.832,2.877-1.282,4.434
			c2.885,0.013,5.608,0.14,8.528,0.886c-0.541,0.172-0.799,0.276-1.066,0.336c-2.358,0.523-4.763,0.894-7.061,1.604
			c-1.793,0.558-3.491,1.47-5.15,2.373c-0.457,0.248-0.946,1.11-0.839,1.549c0.125,0.517,0.832,0.977,1.386,1.275
			c0.48,0.26,1.1,0.266,1.773,0.409c-0.525,1.814-1.026,3.542-1.563,5.397c2.94,0,5.734,0.082,8.585,0.986
			c-0.379,0.099-0.607,0.168-0.839,0.217c-2.038,0.435-4.093,0.797-6.109,1.313c-2.231,0.569-4.423,1.3-6.333,2.649
			c-0.573,0.404-1.274,0.955-0.94,1.709c0.233,0.527,0.878,1.015,1.447,1.225c1.653,0.606,1.674,0.551,1.176,2.269
			c-0.302,1.041-0.603,2.083-0.947,3.272c2.916-0.09,5.572,0.098,8.37,0.883c-2.228,0.496-4.234,0.891-6.211,1.396
			c-2.35,0.604-4.663,1.34-6.705,2.707c-0.611,0.409-1.238,0.913-1.102,1.773c0.131,0.837,0.847,1.122,1.557,1.22
			c1.718,0.238,3.447,0.399,5.358,0.613c0.452,2.927,0.936,6.061,1.451,9.398c0.37-0.359,0.582-0.536,0.759-0.743
			c2.439-2.875,4.897-5.735,7.302-8.642c1.219-1.474,2.423-2.824,4.416-3.367c1.104-0.303,2.117-1.094,3.047-1.82
			c0.889-0.697,0.723-1.695-0.286-2.23c-0.478-0.255-1.034-0.438-1.571-0.49c-0.769-0.07-0.825-0.398-0.632-1.036
			c0.614-2.029,1.238-4.061,1.755-6.114c0.243-0.964,0.737-1.463,1.643-1.865c1.128-0.502,2.182-1.219,3.168-1.973
			c0.61-0.466,0.58-1.343,0.02-1.68c-0.618-0.372-1.314-0.725-2.012-0.816c-0.726-0.1-0.899-0.266-0.688-0.963
			c0.679-2.25,1.354-4.505,1.945-6.777c0.227-0.872,0.71-1.297,1.492-1.677c1.144-0.557,2.242-1.245,3.262-2.008
			c0.657-0.492,0.613-1.227-0.049-1.726c-0.495-0.37-1.122-0.668-1.728-0.769c-0.951-0.158-1.037-0.565-0.78-1.389
			c0.659-2.113,1.281-4.238,1.843-6.378c0.22-0.84,0.709-1.233,1.457-1.602c1.144-0.562,2.256-1.23,3.262-2.009
			c0.715-0.553,0.618-1.356-0.156-1.85c-0.552-0.351-1.227-0.554-1.875-0.693c-0.652-0.143-0.789-0.418-0.6-1.026"/>
		<path fill="#FFFFFF" d="M154.118,123.186c-0.326-0.146-0.742-0.25-1.249-0.302s-1.112-0.077-1.815-0.077
			c-1.044,0-1.888,0.047-2.528,0.141c-0.641,0.094-1.14,0.264-1.497,0.512c-0.357,0.249-0.597,0.588-0.722,1.018
			c-0.124,0.431-0.186,0.977-0.186,1.638c0,0.425,0.078,0.766,0.233,1.022s0.393,0.463,0.713,0.612
			c0.321,0.148,0.731,0.251,1.233,0.303c0.501,0.052,1.104,0.077,1.807,0.077c1.044,0,1.89-0.047,2.537-0.14
			c0.646-0.095,1.148-0.266,1.505-0.514c0.356-0.248,0.597-0.587,0.721-1.016c0.124-0.43,0.186-0.976,0.186-1.638
			c0-0.413-0.075-0.752-0.225-1.018C154.681,123.543,154.442,123.336,154.118,123.186z"/>
		<path fill="#FFFFFF" d="M44.106,114.496c-0.117,0.119-0.241,0.23-0.377,0.337c-0.854,0.653-2.163,1.597-3.655,2.261
			c-0.134,0.061-0.207,0.104-0.242,0.125c-0.009,0.023-0.021,0.063-0.036,0.119c-0.395,1.568-0.852,3.127-1.31,4.648
			c0.185,0.076,0.367,0.165,0.545,0.26c1.246,0.663,2.025,1.77,2.136,3.035c0.108,1.23-0.436,2.414-1.495,3.244
			c-1.036,0.811-2.325,1.818-3.903,2.252c-1.27,0.346-2.086,1.242-3.187,2.572c-0.289,0.352-0.582,0.699-0.874,1.051l0.5,1.92
			h203.765l3.13-21.824H44.106L44.106,114.496z"/>
		<path fill="#FFFFFF" d="M59.479,130.656l-0.357-3.615c-0.052-0.589-0.093-1.105-0.124-1.551c-0.031-0.445-0.052-0.879-0.062-1.305
			c-0.114,0.188-0.235,0.375-0.365,0.566c-0.13,0.191-0.274,0.402-0.435,0.635c-0.16,0.232-0.336,0.484-0.527,0.753
			c-0.191,0.271-0.406,0.574-0.644,0.915l-1.846,2.606c-0.186,0.259-0.359,0.463-0.52,0.61c-0.161,0.15-0.323,0.27-0.489,0.352
			c-0.166,0.082-0.331,0.137-0.497,0.163c-0.166,0.023-0.347,0.038-0.542,0.038c-0.197,0-0.375-0.015-0.536-0.038
			c-0.161-0.026-0.308-0.081-0.442-0.163c-0.135-0.082-0.256-0.199-0.365-0.352c-0.108-0.147-0.209-0.354-0.303-0.61l-0.931-2.622
			c-0.124-0.354-0.235-0.667-0.333-0.946s-0.184-0.53-0.256-0.753c-0.072-0.222-0.137-0.426-0.194-0.611
			c-0.057-0.187-0.111-0.365-0.163-0.543c-0.155,0.384-0.336,0.814-0.543,1.297c-0.207,0.479-0.429,1-0.667,1.559l-1.613,3.615
			h-3.149l4.282-9.122c0.238-0.486,0.543-0.847,0.916-1.078c0.372-0.233,0.76-0.351,1.164-0.351c0.413,0,0.744,0.1,0.993,0.297
			c0.248,0.193,0.439,0.465,0.574,0.807l1.132,2.932c0.269,0.713,0.496,1.321,0.683,1.822c0.186,0.502,0.336,0.929,0.45,1.279
			c0.114-0.188,0.238-0.374,0.373-0.565c0.134-0.189,0.287-0.409,0.458-0.649c0.17-0.243,0.367-0.517,0.589-0.814
			c0.222-0.301,0.483-0.652,0.783-1.055l2.188-2.947c0.238-0.332,0.515-0.598,0.83-0.799c0.315-0.202,0.69-0.305,1.125-0.305
			c0.404,0,0.747,0.115,1.032,0.351c0.284,0.231,0.453,0.592,0.504,1.078l1.024,9.122L59.479,130.656L59.479,130.656z"/>
		<polygon fill="#FFFFFF" points="76.389,127.987 73.845,130.656 63.854,130.656 65.701,120.277 77.707,120.277 75.147,122.977 
			68.431,122.977 68.213,124.218 76.419,124.218 74.186,126.576 67.794,126.576 67.546,127.987 		"/>
		<polygon fill="#FFFFFF" points="84.114,130.656 80.902,130.656 82.252,122.977 77.381,122.977 79.957,120.277 91.747,120.277 
			89.171,122.977 85.479,122.977 		"/>
		<path fill="#FFFFFF" d="M91.995,130.656l2.42-2.669h2.591c0.32,0,0.646,0,0.978,0c0.331,0,0.621,0.011,0.869,0.029
			c-0.114-0.187-0.243-0.421-0.388-0.706c-0.145-0.282-0.279-0.551-0.404-0.799l-1.38-2.746l-6.081,6.891h-3.801l8.315-9.388
			c0.269-0.3,0.589-0.567,0.962-0.807s0.812-0.355,1.319-0.355c0.486,0,0.871,0.11,1.155,0.332c0.285,0.225,0.515,0.499,0.69,0.83
			l4.825,9.388H91.995L91.995,130.656z"/>
		<polygon fill="#FFFFFF" points="114.38,130.656 105.211,130.656 107.059,120.277 110.253,120.277 108.889,127.987 
			116.939,127.987 		"/>
		<path fill="#FFFFFF" d="M138.44,130.478c-0.362,0.232-0.75,0.351-1.164,0.351c-0.414,0-0.745-0.1-0.993-0.295
			c-0.249-0.195-0.44-0.467-0.574-0.809l-1.148-2.932c-0.155-0.403-0.292-0.758-0.411-1.063c-0.119-0.305-0.22-0.579-0.302-0.82
			c-0.083-0.242-0.158-0.463-0.225-0.659s-0.127-0.388-0.178-0.574c-0.114,0.188-0.238,0.378-0.373,0.574
			c-0.135,0.196-0.287,0.417-0.458,0.659c-0.171,0.243-0.367,0.515-0.59,0.813c-0.222,0.3-0.483,0.651-0.783,1.057l-2.188,2.945
			c-0.238,0.332-0.517,0.6-0.838,0.799c-0.32,0.202-0.693,0.305-1.117,0.305c-0.403,0-0.75-0.116-1.04-0.351
			c-0.29-0.231-0.46-0.593-0.512-1.079l-1.008-9.119h3.195l0.341,3.613c0.052,0.59,0.094,1.106,0.124,1.553
			c0.031,0.443,0.057,0.879,0.078,1.303c0.228-0.354,0.489-0.749,0.784-1.194c0.295-0.443,0.685-1.003,1.171-1.675l1.861-2.606
			c0.186-0.249,0.359-0.448,0.52-0.604c0.16-0.156,0.32-0.274,0.48-0.357c0.16-0.082,0.324-0.137,0.489-0.162
			c0.166-0.024,0.347-0.037,0.543-0.037c0.196,0,0.377,0.013,0.543,0.037c0.165,0.025,0.312,0.08,0.442,0.162
			c0.129,0.083,0.248,0.199,0.356,0.352c0.109,0.147,0.209,0.354,0.303,0.61l0.931,2.622c0.125,0.361,0.233,0.682,0.326,0.953
			c0.093,0.274,0.178,0.523,0.256,0.745c0.077,0.222,0.147,0.427,0.209,0.612c0.062,0.187,0.119,0.367,0.17,0.543
			c0.145-0.413,0.313-0.85,0.504-1.303c0.191-0.455,0.421-0.974,0.69-1.553l1.629-3.613h3.149l-4.313,9.119
			C139.098,129.885,138.803,130.244,138.44,130.478z"/>
		<path fill="#FFFFFF" d="M156.142,129.26c-1.427,1.045-3.594,1.566-6.5,1.566c-2.254,0-3.943-0.356-5.065-1.07
			c-1.122-0.713-1.683-1.825-1.683-3.335c0-2.13,0.713-3.716,2.141-4.755c1.428-1.039,3.594-1.559,6.5-1.559
			c2.254,0,3.943,0.354,5.065,1.063c1.123,0.709,1.683,1.817,1.683,3.327C158.283,126.628,157.568,128.215,156.142,129.26z"/>
		<path fill="#FFFFFF" d="M173.958,124.762c-0.161,0.424-0.388,0.808-0.683,1.146c-0.295,0.342-0.649,0.631-1.063,0.869
			c-0.414,0.236-0.869,0.402-1.365,0.494c0.145,0.137,0.308,0.308,0.489,0.514c0.181,0.207,0.417,0.492,0.706,0.854l1.567,2.02
			h-4.297l-1.831-2.746h-4.933l-0.481,2.746h-3.211l0.931-5.309h9.029c0.269,0,0.525-0.028,0.768-0.092
			c0.243-0.063,0.455-0.15,0.636-0.264c0.181-0.114,0.326-0.256,0.435-0.43c0.109-0.17,0.163-0.357,0.163-0.563
			c0-0.342-0.139-0.598-0.419-0.771c-0.279-0.17-0.667-0.256-1.163-0.256h-9.029l2.575-2.699h6.671c0.538,0,1.088,0.049,1.652,0.143
			c0.563,0.092,1.076,0.261,1.536,0.504c0.46,0.242,0.834,0.564,1.125,0.969c0.29,0.404,0.434,0.916,0.434,1.536
			C174.199,123.893,174.119,124.337,173.958,124.762z"/>
		<path fill="#FFFFFF" d="M182.995,130.656l-2.653-2.73c-0.455-0.466-0.804-0.828-1.047-1.086c-0.243-0.259-0.432-0.476-0.566-0.652
			l-0.217,1.49l-0.527,2.979h-3.227l1.846-10.379h3.211l-0.419,2.402c-0.062,0.321-0.129,0.639-0.201,0.947
			c-0.073,0.31-0.135,0.6-0.187,0.868c0.238-0.188,0.53-0.416,0.876-0.69c0.346-0.271,0.789-0.605,1.326-1l3.444-2.527h4.654
			l-4.483,2.979c-0.393,0.259-0.74,0.486-1.039,0.683c-0.3,0.196-0.566,0.368-0.799,0.515c-0.232,0.145-0.442,0.271-0.628,0.387
			c-0.187,0.115-0.373,0.223-0.559,0.326c0.258,0.207,0.571,0.465,0.938,0.773c0.367,0.312,0.84,0.74,1.419,1.288l3.692,3.431
			h-4.854V130.656L182.995,130.656z"/>
		<polygon fill="#FFFFFF" points="201.439,127.987 198.896,130.656 188.905,130.656 190.75,120.277 202.758,120.277 
			200.199,122.977 193.481,122.977 193.265,124.218 201.471,124.218 199.237,126.576 192.846,126.576 192.597,127.987 		"/>
		<path fill="#FFFFFF" d="M214.51,127.785c0.181,0.207,0.416,0.492,0.706,0.854l1.567,2.02h-4.297l-1.831-2.746h-4.933l-0.481,2.746
			h-3.211l0.931-5.309h9.029c0.269,0,0.524-0.028,0.768-0.092c0.243-0.063,0.455-0.15,0.636-0.264
			c0.181-0.114,0.326-0.256,0.435-0.43c0.108-0.17,0.163-0.357,0.163-0.563c0-0.342-0.139-0.598-0.419-0.771
			c-0.279-0.17-0.667-0.256-1.163-0.256h-9.029l2.575-2.697h6.671c0.538,0,1.088,0.047,1.652,0.141
			c0.563,0.092,1.076,0.261,1.536,0.504c0.46,0.242,0.834,0.565,1.125,0.969c0.29,0.404,0.434,0.916,0.434,1.536
			c0,0.466-0.08,0.91-0.24,1.335c-0.161,0.424-0.388,0.807-0.683,1.146c-0.295,0.342-0.649,0.631-1.063,0.868
			s-0.869,0.403-1.365,0.495C214.166,127.408,214.329,127.579,214.51,127.785z"/>
		<path fill="#FFFFFF" d="M223.002,124.42h5.647c1.127,0,1.982,0.199,2.567,0.598c0.584,0.397,0.876,0.984,0.876,1.762
			c0,0.559-0.093,1.074-0.279,1.552c-0.186,0.476-0.483,0.887-0.892,1.231c-0.409,0.348-0.936,0.615-1.582,0.809
			c-0.647,0.189-1.43,0.287-2.351,0.287h-9.665l2.528-2.669h7.865c0.435,0,0.75-0.071,0.946-0.219
			c0.197-0.145,0.295-0.364,0.295-0.667c0-0.414-0.326-0.621-0.978-0.621h-5.662c-1.179,0-2.043-0.227-2.59-0.682
			c-0.549-0.455-0.823-1.061-0.823-1.813c0-0.528,0.093-1.019,0.279-1.468c0.186-0.448,0.483-0.844,0.892-1.18
			c0.408-0.336,0.933-0.598,1.575-0.783c0.641-0.186,1.417-0.277,2.327-0.277h9.014l-2.544,2.697h-7.198
			c-0.434,0-0.75,0.064-0.946,0.193c-0.196,0.131-0.295,0.35-0.295,0.66C222.01,124.223,222.34,124.42,223.002,124.42z"/>
	</g>
	<g>
		<path fill="#FFFFFF" d="M266.931,89.49c0.63,1.117,1.183,2.1,1.655,2.945c0.472,0.844,0.889,1.598,1.247,2.258
			s0.673,1.262,0.946,1.807c0.271,0.544,0.537,1.074,0.795,1.59c0.229-0.516,0.479-1.038,0.753-1.568
			c0.271-0.531,0.587-1.133,0.946-1.807c0.357-0.674,0.773-1.426,1.246-2.258c0.474-0.831,1.025-1.807,1.656-2.924l4.601-8.17
			c0.516-0.918,1.168-1.656,1.957-2.215c0.788-0.56,1.77-0.838,2.945-0.838c1.118,0,2.128,0.321,3.031,0.967
			c0.903,0.646,1.555,1.642,1.956,2.988l7.268,25.285h-8.858l-2.709-10.021c-0.459-1.635-0.846-3.065-1.161-4.301
			c-0.315-1.23-0.588-2.437-0.816-3.61c-0.488,1.004-1.032,2.114-1.634,3.331c-0.603,1.22-1.392,2.761-2.365,4.623l-3.87,7.226
			c-0.373,0.717-0.753,1.283-1.14,1.697c-0.387,0.416-0.781,0.737-1.183,0.969c-0.401,0.229-0.832,0.379-1.29,0.451
			c-0.459,0.07-0.961,0.105-1.505,0.105c-0.545,0-1.047-0.036-1.505-0.105c-0.459-0.072-0.889-0.224-1.29-0.451
			c-0.401-0.229-0.796-0.553-1.183-0.969c-0.387-0.414-0.768-0.98-1.14-1.697l-3.87-7.269c-0.516-0.976-0.975-1.851-1.376-2.623
			s-0.767-1.469-1.096-2.086c-0.33-0.614-0.617-1.182-0.86-1.696c-0.244-0.519-0.48-1.019-0.71-1.506
			c-0.229,1.146-0.502,2.344-0.816,3.591c-0.316,1.247-0.688,2.688-1.118,4.32l-2.709,10.021H245l7.439-25.284
			c0.401-1.348,1.061-2.344,1.978-2.989c0.918-0.646,1.936-0.967,3.054-0.967c1.146,0,2.113,0.271,2.902,0.815
			c0.788,0.545,1.44,1.29,1.956,2.236L266.931,89.49z"/>
		<path fill="#FFFFFF" d="M334.612,100.154l-5.721,7.396h-27.69V78.781h33.325l-5.764,7.482h-18.617v3.438h22.79l-5.117,6.535
			h-17.673v3.914h24.467V100.154z"/>
		<path fill="#FFFFFF" d="M373.398,78.783l-5.765,7.481h-10.274v21.285h-8.901V86.264h-13.502l5.762-7.481H373.398z"/>
		<path fill="#FFFFFF" d="M379.202,107.551l5.375-7.396h7.224c0.86,0,1.756,0,2.688,0c0.932,0,1.742,0.029,2.43,0.086
			c-0.401-0.516-0.867-1.168-1.396-1.957c-0.53-0.785-1.039-1.523-1.526-2.213l-5.161-7.609l-13.502,19.092h-10.535l18.447-26.016
			c0.603-0.831,1.361-1.577,2.279-2.237c0.917-0.658,2.077-0.988,3.48-0.988c1.349,0,2.474,0.31,3.376,0.926
			c0.903,0.617,1.67,1.383,2.301,2.3l17.976,26.016L379.202,107.551L379.202,107.551z"/>
		<path fill="#FFFFFF" d="M447.013,100.154l-5.762,7.396h-25.413V78.781h8.901v21.372h22.272L447.013,100.154L447.013,100.154z"/>
		<path fill="#FFFFFF" d="M495.301,96.844c-0.631-1.119-1.176-2.1-1.634-2.945c-0.459-0.846-0.875-1.604-1.247-2.277
			c-0.372-0.676-0.695-1.283-0.967-1.828c-0.273-0.544-0.538-1.074-0.796-1.592c-0.229,0.518-0.48,1.048-0.753,1.592
			c-0.272,0.545-0.588,1.152-0.945,1.828c-0.359,0.674-0.768,1.426-1.226,2.258c-0.459,0.831-1.005,1.807-1.636,2.924l-4.602,8.17
			c-0.516,0.919-1.168,1.655-1.956,2.213c-0.789,0.563-1.771,0.842-2.945,0.842c-1.116,0-2.129-0.322-3.03-0.971
			c-0.902-0.645-1.557-1.64-1.956-2.986l-7.313-25.284h8.901l2.709,10.02c0.458,1.635,0.839,3.067,1.14,4.299
			c0.301,1.233,0.565,2.438,0.795,3.613c0.459-1.004,0.996-2.113,1.613-3.333c0.616-1.218,1.426-2.759,2.43-4.622l3.869-7.225
			c0.373-0.717,0.745-1.284,1.118-1.699c0.372-0.416,0.767-0.737,1.183-0.968c0.415-0.229,0.854-0.379,1.313-0.451
			c0.458-0.07,0.945-0.107,1.462-0.107c0.544,0,1.046,0.037,1.505,0.107c0.458,0.072,0.896,0.223,1.313,0.451
			c0.414,0.23,0.816,0.552,1.203,0.968c0.389,0.416,0.769,0.982,1.142,1.699l3.827,7.268c0.544,1.004,1.017,1.885,1.419,2.646
			c0.399,0.761,0.759,1.446,1.074,2.063c0.313,0.616,0.596,1.183,0.839,1.698c0.242,0.516,0.479,1.018,0.71,1.506
			c0.229-1.146,0.509-2.352,0.838-3.613c0.33-1.26,0.71-2.691,1.14-4.299l2.709-10.02h8.688l-7.439,25.284
			c-0.4,1.349-1.054,2.344-1.956,2.986c-0.902,0.646-1.914,0.971-3.031,0.971c-1.146,0-2.113-0.273-2.901-0.818
			c-0.788-0.543-1.455-1.289-1.999-2.234L495.301,96.844z"/>
		<path fill="#FFFFFF" d="M539.076,78.31c6.994,0,12.248,1.189,15.76,3.569c3.511,2.381,5.27,6.135,5.27,11.268
			c0,5.158-1.749,8.931-5.246,11.31c-3.498,2.38-8.76,3.567-15.781,3.567c-7.052,0-12.319-1.188-15.803-3.567
			c-3.482-2.379-5.227-6.149-5.227-11.31c0-5.133,1.749-8.887,5.246-11.268C526.792,79.5,532.053,78.31,539.076,78.31z
			 M539.076,100.541c2.236,0,4.128-0.092,5.676-0.279c1.548-0.186,2.802-0.552,3.763-1.096c0.96-0.545,1.655-1.297,2.087-2.258
			c0.431-0.961,0.646-2.215,0.646-3.764s-0.215-2.803-0.646-3.764c-0.432-0.96-1.127-1.705-2.087-2.234
			c-0.961-0.529-2.215-0.89-3.763-1.074c-1.548-0.188-3.438-0.279-5.676-0.279s-4.128,0.093-5.676,0.279
			c-1.55,0.186-2.805,0.545-3.765,1.074c-0.961,0.529-1.653,1.274-2.086,2.234c-0.43,0.961-0.645,2.215-0.645,3.764
			s0.215,2.803,0.645,3.764c0.433,0.961,1.125,1.713,2.086,2.258c0.96,0.544,2.216,0.91,3.765,1.096
			C534.948,100.449,536.84,100.541,539.076,100.541z"/>
		<path fill="#FFFFFF" d="M605.425,107.551h-11.91l-6.405-7.611h-13.676v7.611h-8.899V92.844h25.024
			c1.378,0,2.536-0.285,3.482-0.859c0.946-0.571,1.419-1.359,1.419-2.363c0-1.117-0.43-1.957-1.29-2.518
			c-0.857-0.559-2.063-0.838-3.611-0.838h-25.025l5.805-7.483h18.49c1.634,0,3.325,0.15,5.074,0.453
			c1.748,0.302,3.339,0.838,4.771,1.612c1.435,0.774,2.616,1.821,3.548,3.139c0.934,1.318,1.397,3.012,1.397,5.074
			c0,1.117-0.172,2.18-0.518,3.184c-0.345,1.004-0.839,1.904-1.481,2.709c-0.646,0.803-1.437,1.482-2.365,2.043
			c-0.932,0.559-1.985,0.951-3.161,1.182c0.487,0.373,1.032,0.848,1.635,1.422c0.604,0.571,1.404,1.359,2.407,2.363L605.425,107.551
			z"/>
		<path fill="#FFFFFF" d="M644.898,107.551h-13.459l-8.688-7.568c-1.491-1.289-2.631-2.293-3.419-3.01
			c-0.789-0.717-1.427-1.318-1.913-1.807c0.027,0.66,0.059,1.341,0.086,2.043c0.028,0.703,0.043,1.396,0.043,2.086v8.256h-8.942
			V78.783h8.942v6.665c0,0.891-0.015,1.764-0.043,2.623c-0.027,0.859-0.072,1.664-0.129,2.408c0.572-0.518,1.27-1.152,2.085-1.912
			c0.817-0.762,1.885-1.687,3.203-2.773l8.3-7.01h12.899l-11.008,8.256c-0.946,0.717-1.784,1.348-2.518,1.893
			c-0.729,0.545-1.383,1.018-1.956,1.418c-0.574,0.402-1.097,0.762-1.567,1.076c-0.476,0.314-0.939,0.616-1.397,0.902
			c0.831,0.574,1.834,1.289,3.01,2.15c1.177,0.857,2.694,2.049,4.56,3.566L644.898,107.551z"/>
		<path fill="#FFFFFF" d="M681.233,100.154l-5.721,7.396h-27.69V78.781h33.325l-5.764,7.482h-18.619v3.438h22.79l-5.115,6.535
			h-17.675v3.914h24.469V100.154z"/>
		<path fill="#FFFFFF" d="M725.093,107.551h-11.91l-6.405-7.611h-13.676v7.611h-8.899V92.844h25.024
			c1.378,0,2.536-0.285,3.482-0.859c0.946-0.571,1.419-1.359,1.419-2.363c0-1.117-0.43-1.957-1.29-2.518
			c-0.857-0.559-2.063-0.838-3.611-0.838h-25.024l5.805-7.483h18.49c1.634,0,3.325,0.15,5.074,0.453
			c1.748,0.302,3.339,0.838,4.771,1.612c1.435,0.774,2.616,1.821,3.548,3.139c0.934,1.318,1.397,3.012,1.397,5.074
			c0,1.117-0.172,2.18-0.518,3.184c-0.345,1.004-0.839,1.904-1.481,2.709c-0.646,0.803-1.437,1.482-2.365,2.043
			c-0.932,0.559-1.985,0.951-3.161,1.182c0.487,0.373,1.032,0.848,1.635,1.422c0.604,0.571,1.404,1.359,2.407,2.363L725.093,107.551
			z"/>
		<path fill="#FFFFFF" d="M754.936,90.264c3.524,0,6.205,0.652,8.041,1.957c1.834,1.305,2.753,3.275,2.753,5.912
			c0,1.463-0.229,2.781-0.688,3.957s-1.188,2.164-2.192,2.967c-1.004,0.804-2.285,1.418-3.849,1.85
			c-1.563,0.432-3.434,0.646-5.611,0.646H726.6l5.721-7.396h21.758c1.061,0,1.834-0.164,2.322-0.493
			c0.485-0.33,0.729-0.867,0.729-1.613c0-0.744-0.243-1.274-0.729-1.591c-0.488-0.314-1.264-0.473-2.322-0.473h-15.655
			c-1.864,0-3.47-0.201-4.814-0.604c-1.35-0.399-2.468-0.959-3.354-1.677c-0.889-0.717-1.548-1.583-1.978-2.602
			c-0.432-1.019-0.646-2.145-0.646-3.377c0-1.347,0.236-2.572,0.709-3.677s1.204-2.043,2.193-2.815
			c0.986-0.774,2.264-1.377,3.827-1.807c1.562-0.43,3.433-0.645,5.609-0.645h24.982l-5.719,7.481H739.28
			c-1.032,0-1.8,0.145-2.302,0.432s-0.753,0.803-0.753,1.547c0,0.746,0.251,1.27,0.753,1.57c0.502,0.299,1.27,0.449,2.302,0.449
			L754.936,90.264L754.936,90.264z"/>
	</g>
</g>
</svg>
