<?xml version="1.0" encoding="utf-8"?>
<!-- Generator: Adobe Illustrator 16.0.0, SVG Export Plug-In . SVG Version: 6.00 Build 0)  -->
<!DOCTYPE svg PUBLIC "-//W3C//DTD SVG 1.1//EN" "http://www.w3.org/Graphics/SVG/1.1/DTD/svg11.dtd">
<svg version="1.1" id="Layer_1" xmlns="http://www.w3.org/2000/svg" xmlns:xlink="http://www.w3.org/1999/xlink" x="0px" y="0px"
	 width="760px" height="140px" viewBox="0 0 760 140" enable-background="new 0 0 760 140" xml:space="preserve">
<g>
	<path fill="#EB5416" d="M196.517,44.314l-4.491,16.621c-0.821,3.066-1.547,5.81-2.175,8.217c-0.63,2.409-1.164,4.709-1.601,6.898
		c-0.438-0.93-0.89-1.886-1.354-2.872c-0.466-0.984-1-2.063-1.601-3.243c-0.603-1.176-1.287-2.488-2.052-3.938
		c-0.767-1.449-1.67-3.132-2.708-5.048l-7.307-13.875c-0.712-1.366-1.437-2.446-2.176-3.241c-0.738-0.793-1.505-1.408-2.298-1.847
		c-0.794-0.438-1.629-0.726-2.504-0.862c-0.876-0.136-1.834-0.205-2.874-0.205c-0.985,0-1.916,0.069-2.791,0.205
		c-0.876,0.138-1.711,0.425-2.503,0.862c-0.794,0.438-1.547,1.054-2.257,1.847c-0.712,0.795-1.424,1.875-2.135,3.241l-7.388,13.793
		c-1.917,3.558-3.462,6.498-4.639,8.824c-1.177,2.327-2.204,4.447-3.079,6.362c-0.438-2.242-0.944-4.542-1.518-6.897
		c-0.575-2.353-1.301-5.102-2.176-8.221l-5.171-19.14h-11.362c-1.504,1.556-2.908,3.197-4.208,4.924l12.532,43.358
		c0.766,2.573,2.011,4.479,3.735,5.711s3.653,1.852,5.788,1.852c2.243,0,4.117-0.532,5.623-1.6c1.504-1.068,2.75-2.476,3.735-4.228
		l8.784-15.599c1.203-2.135,2.243-3.994,3.119-5.582c0.875-1.587,1.654-3.023,2.339-4.312c0.684-1.283,1.285-2.446,1.806-3.487
		c0.52-1.039,0.998-2.052,1.437-3.037c0.493,0.985,0.998,1.998,1.519,3.037c0.52,1.041,1.136,2.204,1.847,3.487
		c0.711,1.287,1.504,2.738,2.381,4.353c0.875,1.615,1.915,3.488,3.119,5.623l8.785,15.517c1.039,1.807,2.311,3.229,3.816,4.27
		c1.505,1.039,3.352,1.56,5.542,1.56c2.134,0,4.063-0.613,5.787-1.847c1.724-1.23,2.969-3.145,3.736-5.718l7.565-25.72
		C205.087,57.025,201.463,50.148,196.517,44.314z"/>
	<path fill="#0A1045" d="M207.647,96.91h15.521c2.193-7.989,3.096-15.945,2.343-24.014c-6.714-1.533-11.303-5.165-13.186-11.625
		c-1.902-6.52,0.252-12.062,4.787-16.77c-4.07-7.332-9.112-13.553-15.294-18.908c-5.716,3.736-11.585,4.438-17.534,1.202
		c-5.943-3.233-8.532-8.552-8.495-15.312c-8.025-2.228-16.059-3.154-24.234-2.426c-2.654,13.326-18.337,18.904-28.436,8.428
		c-7.136,3.996-13.547,8.903-18.806,15.371c3.567,5.514,4.276,11.194,1.436,16.875c0.872,1.416,1.686,2.867,2.433,4.35
		c2.577-5.113,5.96-9.83,10.059-13.93c10.131-10.131,24.038-15.896,38.374-15.896s28.243,5.765,38.374,15.896
		c10.131,10.131,15.895,24.039,15.895,38.375C210.884,84.835,209.761,91.056,207.647,96.91z"/>
	<path fill="#EB5416" d="M39.907,62.507c0.438,0.932,0.889,1.889,1.354,2.873c0.464,0.984,1.012,2.066,1.642,3.242
		c0.628,1.178,1.326,2.504,2.093,3.983c0.766,1.478,1.642,3.146,2.627,5.008l7.388,13.873c0.711,1.367,1.437,2.449,2.176,3.242
		c0.739,0.793,1.49,1.408,2.257,1.848c0.766,0.438,1.586,0.725,2.463,0.859c0.875,0.139,1.833,0.205,2.873,0.205
		c1.039,0,1.997-0.066,2.873-0.205c0.875-0.137,1.696-0.424,2.463-0.859c0.766-0.438,1.519-1.055,2.257-1.848
		c0.739-0.793,1.463-1.875,2.176-3.242l7.388-13.791c1.86-3.56,3.366-6.498,4.515-8.826c1.149-2.325,2.188-4.446,3.119-6.362
		c0.438,2.245,0.957,4.543,1.56,6.896c0.602,2.354,1.34,5.09,2.217,8.209l5.171,19.128h16.911l-13.874-48.272
		c-0.767-2.571-2.011-4.476-3.735-5.705c-1.724-1.231-3.653-1.848-5.788-1.848c-2.245,0-4.119,0.532-5.623,1.603
		c-1.506,1.065-2.75,2.477-3.735,4.227l-8.783,15.598c-1.205,2.135-2.258,3.996-3.161,5.582c-0.903,1.588-1.697,3.024-2.38,4.313
		c-0.686,1.285-1.287,2.436-1.807,3.447c-0.521,1.014-0.999,2.012-1.436,2.994c-0.493-0.982-1-1.997-1.519-3.035
		c-0.521-1.039-1.122-2.188-1.806-3.447c-0.685-1.26-1.478-2.696-2.38-4.313c-0.903-1.613-1.958-3.488-3.161-5.623l-8.784-15.516
		c-0.985-1.807-2.23-3.229-3.735-4.268c-1.506-1.039-3.353-1.562-5.541-1.562c-2.135,0-4.078,0.614-5.829,1.848
		c-1.752,1.229-3.011,3.134-3.776,5.705l-6.356,22.306c-0.081,0.279-0.117,0.575-0.199,0.996c2.828,0.031,5.535,0.127,8.313,0.942
		c-2.139,0.476-4.145,0.778-6.056,1.383c-2.266,0.718-4.473,1.642-6.655,2.591c-0.761,0.329-1.566,0.952-1.331,1.979
		c0.24,1.044,1.246,1.175,2.111,1.349c1.073,0.214,1.082,0.183,0.767,1.277c-0.414,1.438-0.832,2.877-1.282,4.434
		c2.885,0.013,5.608,0.14,8.528,0.886c-0.541,0.172-0.799,0.276-1.066,0.336c-2.358,0.523-4.763,0.894-7.061,1.604
		c-1.793,0.558-3.491,1.47-5.15,2.373c-0.457,0.248-0.946,1.11-0.839,1.549c0.125,0.517,0.832,0.976,1.386,1.275
		c0.48,0.26,1.1,0.266,1.773,0.409c-0.525,1.814-1.026,3.542-1.563,5.397c2.94,0,5.734,0.082,8.585,0.986
		c-0.379,0.099-0.607,0.168-0.839,0.217c-2.038,0.435-4.093,0.797-6.109,1.313c-2.231,0.569-4.423,1.3-6.333,2.649
		c-0.573,0.404-1.274,0.955-0.94,1.709c0.233,0.527,0.878,1.015,1.447,1.225c1.653,0.606,1.674,0.551,1.176,2.269
		c-0.302,1.041-0.603,2.083-0.947,3.272c2.916-0.09,5.572,0.098,8.37,0.883c-2.228,0.496-4.234,0.891-6.211,1.396
		c-2.35,0.604-4.663,1.34-6.705,2.707c-0.611,0.409-1.238,0.913-1.102,1.773c0.131,0.837,0.847,1.122,1.557,1.22
		c1.718,0.238,3.447,0.399,5.358,0.613c0.452,2.927,0.936,6.061,1.451,9.398c0.37-0.359,0.582-0.536,0.759-0.743
		c2.439-2.875,4.897-5.735,7.302-8.642c1.219-1.474,2.423-2.824,4.416-3.367c1.104-0.303,2.117-1.094,3.047-1.82
		c0.889-0.697,0.723-1.695-0.286-2.23c-0.478-0.255-1.034-0.438-1.571-0.49c-0.769-0.07-0.825-0.398-0.632-1.036
		c0.614-2.029,1.238-4.061,1.755-6.114c0.243-0.964,0.737-1.463,1.643-1.865c1.128-0.502,2.182-1.219,3.168-1.973
		c0.61-0.466,0.58-1.343,0.02-1.68c-0.618-0.372-1.314-0.725-2.012-0.816c-0.726-0.1-0.899-0.266-0.688-0.963
		c0.679-2.25,1.354-4.505,1.945-6.777c0.227-0.872,0.71-1.297,1.492-1.677c1.144-0.557,2.242-1.245,3.262-2.008
		c0.657-0.492,0.613-1.227-0.049-1.726c-0.495-0.37-1.122-0.668-1.728-0.769c-0.951-0.158-1.037-0.565-0.78-1.389
		c0.659-2.113,1.281-4.238,1.843-6.378c0.22-0.84,0.709-1.233,1.457-1.602c1.144-0.562,2.256-1.23,3.262-2.009
		c0.715-0.553,0.618-1.356-0.156-1.85c-0.552-0.351-1.227-0.554-1.875-0.693c-0.652-0.143-0.789-0.418-0.6-1.026"/>
	<path fill="#0A1045" d="M34.106,104.496c-0.117,0.119-0.241,0.23-0.377,0.337c-0.854,0.653-2.163,1.597-3.655,2.261
		c-0.134,0.061-0.207,0.104-0.242,0.125c-0.009,0.023-0.021,0.063-0.036,0.119c-0.395,1.568-0.852,3.127-1.31,4.648
		c0.185,0.076,0.367,0.165,0.545,0.26c1.246,0.663,2.025,1.77,2.136,3.035c0.108,1.23-0.436,2.414-1.495,3.244
		c-1.036,0.811-2.325,1.818-3.903,2.252c-1.27,0.346-2.086,1.242-3.187,2.572c-0.289,0.352-0.582,0.699-0.874,1.051l0.5,1.92
		h203.765l3.13-21.824H34.106L34.106,104.496z"/>
	<g>
		<path d="M256.93,79.49c0.63,1.117,1.183,2.1,1.655,2.945c0.472,0.844,0.889,1.598,1.247,2.258s0.673,1.262,0.946,1.807
			c0.271,0.544,0.537,1.074,0.795,1.59c0.229-0.516,0.479-1.038,0.753-1.568c0.271-0.531,0.587-1.133,0.946-1.807
			c0.357-0.674,0.773-1.426,1.246-2.258c0.474-0.831,1.025-1.807,1.656-2.924l4.601-8.17c0.516-0.918,1.168-1.656,1.957-2.215
			c0.788-0.559,1.77-0.838,2.945-0.838c1.118,0,2.128,0.322,3.031,0.967c0.903,0.646,1.555,1.642,1.956,2.989l7.269,25.285h-8.858
			l-2.709-10.02c-0.459-1.635-0.846-3.066-1.161-4.301c-0.315-1.231-0.588-2.438-0.816-3.611c-0.488,1.004-1.032,2.115-1.634,3.332
			c-0.603,1.219-1.392,2.76-2.365,4.623l-3.87,7.225c-0.373,0.717-0.753,1.283-1.14,1.697c-0.387,0.416-0.781,0.738-1.183,0.969
			c-0.401,0.229-0.832,0.379-1.29,0.451c-0.459,0.07-0.961,0.105-1.505,0.105c-0.545,0-1.047-0.035-1.505-0.105
			c-0.459-0.072-0.889-0.223-1.29-0.451s-0.796-0.553-1.183-0.969c-0.387-0.414-0.768-0.98-1.14-1.697l-3.87-7.268
			c-0.516-0.977-0.975-1.852-1.376-2.623c-0.401-0.773-0.767-1.469-1.096-2.086c-0.33-0.615-0.617-1.182-0.86-1.697
			c-0.244-0.518-0.48-1.018-0.71-1.506c-0.229,1.146-0.502,2.344-0.816,3.591c-0.316,1.247-0.688,2.688-1.118,4.321l-2.709,10.02
			h-8.729l7.439-25.285c0.401-1.347,1.061-2.343,1.978-2.989c0.918-0.645,1.936-0.967,3.054-0.967c1.146,0,2.113,0.272,2.902,0.816
			c0.788,0.545,1.44,1.29,1.956,2.237L256.93,79.49z"/>
		<path d="M324.611,90.154l-5.721,7.396H291.2V68.781h33.325l-5.764,7.483h-18.617v3.439h22.79l-5.117,6.535h-17.673v3.914h24.467
			V90.154z"/>
		<path d="M363.397,68.783l-5.765,7.482h-10.274V97.55h-8.901V76.265h-13.502l5.762-7.482H363.397z"/>
		<path d="M369.201,97.551l5.375-7.396h7.224c0.86,0,1.756,0,2.688,0c0.932,0,1.742,0.029,2.43,0.086
			c-0.401-0.516-0.867-1.168-1.396-1.957c-0.53-0.785-1.039-1.523-1.526-2.213l-5.16-7.609l-13.502,19.092h-10.535l18.447-26.016
			c0.603-0.831,1.361-1.577,2.279-2.237c0.917-0.658,2.077-0.988,3.48-0.988c1.349,0,2.474,0.309,3.376,0.924
			c0.903,0.617,1.67,1.384,2.301,2.301l17.976,26.016L369.201,97.551L369.201,97.551z"/>
		<path d="M437.012,90.154l-5.762,7.396h-25.413V68.781h8.901v21.372h22.272L437.012,90.154L437.012,90.154z"/>
		<path d="M485.3,86.844c-0.631-1.119-1.176-2.1-1.634-2.945c-0.459-0.846-0.875-1.604-1.247-2.277
			c-0.372-0.676-0.695-1.283-0.967-1.828c-0.273-0.544-0.538-1.074-0.796-1.592c-0.229,0.518-0.48,1.048-0.753,1.592
			c-0.272,0.545-0.588,1.152-0.945,1.828c-0.359,0.674-0.768,1.426-1.226,2.258c-0.459,0.831-1.005,1.807-1.636,2.924l-4.602,8.17
			c-0.516,0.92-1.168,1.655-1.956,2.213c-0.789,0.563-1.771,0.842-2.945,0.842c-1.116,0-2.129-0.322-3.03-0.971
			c-0.902-0.645-1.557-1.64-1.956-2.986l-7.313-25.284h8.901l2.709,10.02c0.458,1.635,0.839,3.067,1.14,4.299
			c0.301,1.233,0.565,2.438,0.795,3.613c0.459-1.004,0.996-2.113,1.613-3.333c0.616-1.218,1.426-2.759,2.43-4.622l3.869-7.225
			c0.373-0.717,0.745-1.284,1.118-1.699c0.372-0.416,0.767-0.737,1.183-0.968c0.415-0.229,0.854-0.379,1.313-0.451
			c0.458-0.07,0.945-0.107,1.462-0.107c0.544,0,1.046,0.037,1.505,0.107c0.458,0.072,0.896,0.223,1.313,0.451
			c0.414,0.23,0.816,0.552,1.203,0.968c0.389,0.416,0.769,0.982,1.142,1.699l3.827,7.268c0.544,1.004,1.017,1.885,1.419,2.646
			c0.399,0.761,0.759,1.446,1.074,2.063c0.313,0.616,0.596,1.183,0.839,1.698c0.242,0.516,0.479,1.018,0.71,1.506
			c0.229-1.146,0.509-2.352,0.838-3.613c0.33-1.26,0.71-2.691,1.14-4.299l2.709-10.02h8.688l-7.439,25.284
			c-0.4,1.349-1.054,2.344-1.956,2.986c-0.902,0.646-1.914,0.971-3.031,0.971c-1.146,0-2.113-0.273-2.901-0.818
			c-0.788-0.543-1.455-1.289-1.999-2.234L485.3,86.844z"/>
		<path d="M529.075,68.31c6.994,0,12.248,1.189,15.76,3.569c3.511,2.381,5.27,6.135,5.27,11.268c0,5.158-1.749,8.931-5.246,11.31
			c-3.498,2.38-8.76,3.567-15.781,3.567c-7.052,0-12.319-1.188-15.803-3.567c-3.482-2.379-5.227-6.149-5.227-11.31
			c0-5.133,1.749-8.887,5.246-11.268C516.791,69.5,522.052,68.31,529.075,68.31z M529.075,90.541c2.236,0,4.128-0.092,5.676-0.279
			c1.548-0.186,2.802-0.552,3.763-1.096c0.96-0.545,1.655-1.297,2.087-2.258c0.431-0.961,0.646-2.215,0.646-3.764
			s-0.215-2.803-0.646-3.764c-0.432-0.96-1.127-1.705-2.087-2.234c-0.961-0.529-2.215-0.89-3.763-1.074
			c-1.548-0.188-3.438-0.279-5.676-0.279s-4.128,0.093-5.676,0.279c-1.55,0.186-2.805,0.545-3.765,1.074
			c-0.961,0.529-1.653,1.274-2.086,2.234c-0.43,0.961-0.645,2.215-0.645,3.764s0.215,2.803,0.645,3.764
			c0.433,0.961,1.125,1.713,2.086,2.258c0.96,0.544,2.216,0.91,3.765,1.096C524.947,90.449,526.839,90.541,529.075,90.541z"/>
		<path d="M595.424,97.551h-11.91l-6.405-7.611h-13.676v7.611h-8.899V82.844h25.024c1.378,0,2.536-0.285,3.482-0.859
			c0.946-0.571,1.419-1.359,1.419-2.363c0-1.117-0.43-1.957-1.29-2.518c-0.857-0.559-2.063-0.838-3.611-0.838h-25.025l5.805-7.483
			h18.49c1.634,0,3.325,0.15,5.074,0.453c1.748,0.301,3.339,0.838,4.771,1.612c1.435,0.774,2.616,1.821,3.548,3.139
			c0.934,1.318,1.397,3.012,1.397,5.074c0,1.117-0.172,2.18-0.518,3.184c-0.345,1.004-0.839,1.904-1.481,2.709
			c-0.646,0.803-1.437,1.482-2.365,2.043c-0.932,0.559-1.985,0.951-3.161,1.182c0.487,0.373,1.032,0.848,1.635,1.422
			c0.604,0.571,1.404,1.359,2.407,2.363L595.424,97.551z"/>
		<path d="M634.898,97.551h-13.459l-8.688-7.568c-1.491-1.289-2.631-2.293-3.419-3.01c-0.789-0.717-1.427-1.318-1.913-1.807
			c0.027,0.66,0.058,1.341,0.086,2.043c0.028,0.703,0.043,1.396,0.043,2.086v8.256h-8.942V68.783h8.942v6.665
			c0,0.892-0.015,1.765-0.043,2.623c-0.028,0.86-0.072,1.664-0.129,2.408c0.572-0.517,1.269-1.152,2.085-1.912
			c0.817-0.761,1.885-1.686,3.203-2.772l8.3-7.011h12.899l-11.008,8.257c-0.946,0.717-1.784,1.348-2.518,1.894
			c-0.729,0.545-1.383,1.018-1.956,1.418c-0.573,0.401-1.097,0.762-1.567,1.075c-0.476,0.313-0.939,0.616-1.397,0.902
			c0.831,0.573,1.834,1.288,3.01,2.149c1.177,0.858,2.694,2.049,4.56,3.567L634.898,97.551z"/>
		<path d="M671.233,90.154l-5.721,7.396h-27.69V68.781h33.325l-5.764,7.483h-18.619v3.439h22.79l-5.115,6.535h-17.675v3.914h24.469
			V90.154L671.233,90.154z"/>
		<path d="M715.093,97.551h-11.91l-6.405-7.611h-13.675v7.611h-8.901V82.844h25.026c1.375,0,2.534-0.285,3.48-0.859
			c0.946-0.571,1.419-1.359,1.419-2.363c0-1.117-0.43-1.957-1.29-2.518c-0.857-0.559-2.063-0.838-3.609-0.838h-25.026l5.805-7.483
			h18.49c1.634,0,3.325,0.15,5.074,0.453c1.748,0.301,3.339,0.838,4.771,1.612c1.435,0.774,2.616,1.821,3.548,3.139
			c0.934,1.318,1.397,3.012,1.397,5.074c0,1.117-0.172,2.18-0.518,3.184c-0.345,1.004-0.839,1.904-1.481,2.709
			c-0.646,0.803-1.437,1.482-2.365,2.043c-0.932,0.559-1.983,0.951-3.161,1.182c0.487,0.373,1.032,0.848,1.637,1.422
			c0.602,0.571,1.402,1.359,2.405,2.363L715.093,97.551z"/>
		<path d="M744.935,80.264c3.525,0,6.206,0.652,8.041,1.957c1.834,1.305,2.754,3.275,2.754,5.912c0,1.463-0.229,2.781-0.688,3.957
			s-1.188,2.164-2.192,2.967s-2.285,1.418-3.849,1.85c-1.563,0.432-3.434,0.646-5.611,0.646H716.6l5.721-7.396h21.758
			c1.061,0,1.834-0.164,2.322-0.493c0.485-0.33,0.729-0.867,0.729-1.613c0-0.744-0.243-1.274-0.729-1.591
			c-0.488-0.314-1.264-0.473-2.322-0.473h-15.651c-1.862,0-3.47-0.201-4.814-0.604c-1.35-0.399-2.467-0.959-3.354-1.677
			c-0.889-0.717-1.548-1.583-1.978-2.602c-0.432-1.019-0.646-2.145-0.646-3.377c0-1.347,0.236-2.572,0.709-3.677
			s1.204-2.043,2.193-2.815c0.988-0.774,2.264-1.375,3.827-1.807c1.562-0.43,3.433-0.645,5.609-0.645h24.982l-5.719,7.482h-19.952
			c-1.032,0-1.799,0.144-2.301,0.431s-0.754,0.804-0.754,1.547c0,0.746,0.252,1.271,0.754,1.57c0.502,0.301,1.269,0.45,2.301,0.45
			L744.935,80.264L744.935,80.264z"/>
	</g>
</g>
</svg>
