<?xml version="1.0" encoding="UTF-8"?><svg id="Layer_1" xmlns="http://www.w3.org/2000/svg" viewBox="0 0 241.39 241.39"><defs><style>.cls-1{fill:#fff;}.cls-2{fill:#f59e0b;}.cls-3{fill:#0ea5e9;}</style></defs><rect class="cls-1" width="241.39" height="241.39"/><path class="cls-2" d="m128.75,99.98v.05h17.72v-.05c0-21.51-16.2-36.59-36.57-36.59h-.11c-20.25.06-36.69,15.11-36.69,36.59v.05c.03,21.43,16.46,36.59,36.69,36.65v-15.9c-11.55-.05-18.85-8.28-18.86-20.75v-.05c0-12.69,7.3-20.75,18.86-20.79h.11c11.4,0,18.85,8.06,18.85,20.79Z"/><path class="cls-3" d="m168.28,155.97c0,12.03-9.37,22.02-26.1,22.02v-13.98c4.8-.16,7.85-2.67,7.85-6.72,0-13.25-35.77-6.12-35.56-31.48,0-13.56,11.11-21.1,26.08-21.1s26.08,7.75,26.8,21.4h-18.85c-.31-4.59-3.56-7.35-8.26-7.44-4.18-.1-7.34,2.02-7.34,6.51,0,12.44,35.37,6.84,35.37,30.78Z"/></svg>