<svg width="512" height="512" viewBox="0 0 512 512" style="color:#29086A" xmlns="http://www.w3.org/2000/svg" class="h-full w-full"><rect width="512" height="512" x="0" y="0" rx="30" fill="transparent" stroke="transparent" stroke-width="0" stroke-opacity="100%" paint-order="stroke"></rect><svg width="256px" height="256px" viewBox="0 0 1024 1024" fill="#29086A" x="128" y="128" role="img" style="display:inline-block;vertical-align:middle" xmlns="http://www.w3.org/2000/svg"><g fill="#29086A"><path fill="currentColor" d="M732 120c0-4.4-3.6-8-8-8H300c-4.4 0-8 3.6-8 8v148h440V120zm120 212H172c-44.2 0-80 35.8-80 80v328c0 17.7 14.3 32 32 32h168v132c0 4.4 3.6 8 8 8h424c4.4 0 8-3.6 8-8V772h168c17.7 0 32-14.3 32-32V412c0-44.2-35.8-80-80-80zM664 844H360V568h304v276zm164-360c0 4.4-3.6 8-8 8h-40c-4.4 0-8-3.6-8-8v-40c0-4.4 3.6-8 8-8h40c4.4 0 8 3.6 8 8v40z"/></g></svg></svg>