<?xml version="1.0" standalone="no"?>
<!DOCTYPE svg PUBLIC "-//W3C//DTD SVG 20010904//EN"
 "http://www.w3.org/TR/2001/REC-SVG-20010904/DTD/svg10.dtd">
<svg version="1.0" xmlns="http://www.w3.org/2000/svg"
 width="1000.000000pt" height="1000.000000pt" viewBox="0 0 1000.000000 1000.000000"
 preserveAspectRatio="xMidYMid meet">
<metadata>
Created by potrace 1.14, written by Peter Selinger 2001-2017
</metadata>
<g transform="translate(0.000000,1000.000000) scale(0.100000,-0.100000)"
fill="#000000" stroke="none">
<path d="M4048 9005 c-2 -2 -34 -6 -73 -9 -79 -8 -133 -15 -155 -19 -8 -2 -37
-7 -65 -11 -227 -36 -526 -137 -754 -257 -390 -204 -701 -490 -944 -866 -37
-57 -64 -103 -60 -103 3 0 -1 -8 -9 -17 -19 -22 -60 -102 -105 -208 -112 -260
-182 -539 -209 -840 -7 -70 -7 -398 0 -452 3 -29 9 -77 12 -105 8 -82 30 -218
40 -250 3 -9 7 -25 9 -35 62 -306 223 -662 416 -924 90 -122 150 -191 266
-305 286 -282 637 -490 1028 -609 98 -30 93 -29 210 -55 95 -20 119 -25 200
-36 28 -3 52 -8 55 -9 5 -3 211 -16 295 -19 l30 -1 1 558 1 557 -21 1 c-26 0
-107 7 -166 13 -219 23 -487 131 -635 256 -148 126 -250 253 -330 415 -91 185
-135 344 -161 585 -10 101 -5 387 10 466 2 10 7 39 11 64 78 491 368 866 791
1025 73 27 68 26 204 56 108 23 389 34 500 18 73 -10 195 -36 225 -49 11 -4
40 -14 65 -21 72 -22 227 -104 304 -163 120 -89 249 -234 320 -357 60 -104
139 -308 160 -414 4 -16 9 -41 11 -55 3 -14 8 -41 11 -60 3 -19 7 -46 9 -60 3
-14 7 -74 11 -135 3 -60 7 -115 9 -121 2 -8 179 -11 622 -10 l618 1 -1 50 c-1
65 -14 265 -19 296 -2 13 -8 56 -14 94 -16 105 -19 120 -51 245 -75 296 -191
555 -364 810 -28 41 -53 77 -56 80 -3 3 -23 28 -45 55 -253 318 -599 577 -981
733 -134 55 -308 112 -384 126 -14 2 -45 9 -70 15 -25 5 -61 12 -80 16 -19 3
-46 7 -60 10 -14 3 -47 7 -75 11 -27 3 -63 8 -80 10 -35 5 -473 13 -477 9z"/>
<path d="M6277 6114 c-1 -2 -37 -4 -79 -5 -43 -1 -99 -5 -126 -10 -27 -4 -71
-10 -98 -13 -27 -3 -60 -8 -74 -11 -14 -3 -41 -8 -60 -11 -19 -3 -69 -15 -110
-26 -478 -126 -819 -373 -1010 -731 -48 -89 -113 -266 -125 -337 -3 -19 -11
-62 -17 -95 -14 -75 -18 -336 -7 -435 55 -483 319 -823 830 -1064 170 -80 357
-149 684 -251 342 -108 486 -161 610 -225 245 -127 354 -271 355 -465 0 -173
-93 -324 -247 -399 -63 -32 -183 -64 -248 -67 -37 -2 -46 -7 -50 -23 -2 -12
-3 -233 -3 -493 l1 -471 101 4 c56 2 126 7 156 11 30 3 58 6 62 5 13 -3 270
47 328 63 72 21 72 21 95 29 232 84 349 143 495 251 88 64 212 181 262 247 13
16 28 35 34 41 22 26 93 135 126 197 72 135 135 328 155 476 10 76 10 363 0
434 -61 429 -321 752 -792 987 -164 82 -351 154 -673 262 -467 156 -625 221
-759 310 -168 112 -247 251 -236 418 12 190 109 325 279 384 75 27 127 33 239
32 300 -4 530 -192 562 -460 3 -29 9 -54 12 -54 3 -1 300 -2 658 -3 540 -1
654 1 658 12 3 8 3 17 1 20 -2 4 -7 41 -10 82 -30 325 -178 647 -406 880 -90
92 -262 215 -391 280 -131 66 -370 148 -514 175 -63 12 -223 34 -290 41 -71 7
-372 13 -378 8z"/>
</g>
</svg>
