<?xml version="1.0" encoding="UTF-8"?> <svg xmlns="http://www.w3.org/2000/svg" id="Layer_1" viewBox="0 0 328 139.59"><defs><style>.cls-1{fill:#fff;}.cls-2{fill:#ae9a64;}.cls-3{fill:#131a1c;}</style></defs><rect class="cls-2" width="328" height="139.59" rx="9.16" ry="9.16"></rect><rect class="cls-3" x="5.82" y="5.69" width="316.68" height="127.79" rx="3.66" ry="3.66"></rect><rect class="cls-1" x="256.13" y="26.12" width="44.48" height="7.5"></rect><g><path class="cls-1" d="M289.49,48.16c-4.61,0-6.1,.7-6.1,2.86,0,1.93,1.58,2.61,6.03,2.61s6.16-.66,6.16-2.74-1.54-2.74-6.1-2.74m-19.95-.37c-5.63,0-7.52,.83-7.52,3.29,0,2.13,1.84,2.92,6.78,2.92s7.03-.79,7.03-2.92c0-2.46-1.59-3.29-6.28-3.29m-1.3,13.15c-8.41,0-13.04-3.55-13.04-9.98s4.58-10.11,13.6-10.11c5.47,0,8.99,1.31,11.01,4.12,1.87-2.35,5.04-3.44,9.93-3.44,7.57,0,11.74,3.35,11.74,9.43s-4.15,9.3-11.68,9.3c-4.99,0-8.03-1.01-10.02-3.37-1.68,2.65-5.65,4.05-11.54,4.05"></path><path class="cls-1" d="M265.82,74.85c-2.31,0-3.8,1.29-3.8,3.3s1.42,3.05,3.8,3.05h8.51c1.98,0,3.11-.95,3.11-2.61,0-1.38-.96-2.74-2.64-3.73h-8.99Zm24.17,13.32h-1.67v-6.98h3.16c1.9,0,3.17-1.27,3.17-3.17s-1.28-3.17-3.11-3.17h-10.08c1.53,1.66,2.37,3.73,2.37,5.9,0,4.89-3.21,7.42-8.82,7.42h-7.52c-7.82,0-12.3-3.55-12.3-10.21s4.43-10.09,12.48-10.09h22.5c7.12,0,11.37,3.69,11.37,10.33,0,6.22-4.53,9.96-11.55,9.96"></path><path class="cls-1" d="M268.86,114.06c-8.77,0-13.6-3.44-13.6-9.68s4.64-10.23,12.73-10.23h1.42v7h-2.11c-4.63,0-5.22,1.53-5.22,2.86,0,2.34,1.73,3.29,5.97,3.29,5.88,0,7.77-1.28,7.77-5.28v-1.17h6.76v1.36c0,3.22,1.83,4.47,6.53,4.47s5.41-1.29,5.41-2.55c0-1.72-.76-2.86-4.48-2.86-.49,0-1.04,0-1.65,.06l-.34,.03v-7.03h.68c7.93,0,12.67,3.66,12.67,9.8s-4.28,9.12-12.73,9.12c-4.91,0-7.77-1.04-9.42-3.48-1.97,3.55-5.47,4.28-10.4,4.28"></path><path class="cls-2" d="M136.22,101.61h10.6c2.64,0,3.61-1.4,3.61-3.29V40.51c0-2.07-1.37-3-2.92-3.01h-11.29V101.61Zm-12.54,11.49V26.13h26.21c6.64,0,13.09,4.08,13.09,12.77v60.86c0,9.03-5.77,13.33-13.8,13.33h-25.51Z"></path></g><polygon class="cls-2" points="29.95 26.13 42.49 26.13 42.49 62.46 58.9 62.46 58.9 26.13 71.45 26.13 71.45 113.1 58.9 113.1 58.9 73.83 42.49 73.83 42.49 113.1 29.95 113.1 29.95 26.13"></polygon><polygon class="cls-2" points="202.11 26.13 202.11 37.51 182.83 37.51 182.83 62.44 199.46 62.44 199.46 73.83 182.83 73.83 182.83 101.58 202.11 101.58 202.11 113.1 170.31 113.1 170.31 26.13 202.11 26.13"></polygon><g><path class="cls-2" d="M76.44,26.13h12.94l8.45,33.01,8.49-33.01h12.94l-14.66,54.01c-.41,1.32-.63,2.74-.63,4.37v28.59h-12.49v-28.49c0-2.17-.08-3.29-.39-4.51l-14.65-53.97Z"></path><path class="cls-2" d="M242.61,43.98c0-13.41-6.91-19.2-17.58-19.2-11.32,0-18,4.51-18,18.44v7.78c0,8.42,1.45,14.12,9.78,18.37l7.42,3.78c4.11,2.11,5.85,4.38,5.85,9.32v13.82c0,4.28-2.21,6.6-5.84,6.6-3.32,0-5.91-2.06-5.91-6.77v-9.37h-12.12v8.59c0,12.53,7.84,18.99,18.2,18.99,12.38,0,18.21-4.94,18.21-18.84v-14.87c0-8.75-3.14-13.46-11-17.46l-6.63-3.38c-4.63-2.34-5.32-3.62-5.55-8.75v-8.84c0-3.91,2.26-6.02,5.3-6.02,3.19,0,5.66,1.98,5.66,6.38v7.81h12.2v-6.4Z"></path></g></svg> 