<svg xmlns="http://www.w3.org/2000/svg" xmlns:xlink="http://www.w3.org/1999/xlink" width="1980" zoomAndPan="magnify" viewBox="0 0 1485 809.999993" height="1080" preserveAspectRatio="xMidYMid meet" version="1.0"><path fill="#ffffff" d="M 1203.070312 410.289062 C 1199.101562 425.460938 1195.742188 439.960938 1192.984375 453.746094 C 1190.222656 447.890625 1187.378906 441.867188 1184.453125 435.65625 C 1181.523438 429.453125 1178.160156 422.65625 1174.371094 415.230469 C 1170.574219 407.824219 1166.269531 399.550781 1161.445312 390.410156 C 1156.613281 381.28125 1150.925781 370.679688 1144.386719 358.605469 L 1098.363281 271.203125 C 1093.882812 262.589844 1089.316406 255.777344 1084.660156 250.777344 C 1080.007812 245.78125 1075.175781 241.90625 1070.183594 239.140625 C 1065.179688 236.386719 1059.925781 234.574219 1054.414062 233.710938 C 1048.894531 232.855469 1042.859375 232.417969 1036.3125 232.417969 C 1030.109375 232.417969 1024.246094 232.855469 1018.734375 233.710938 C 1013.21875 234.574219 1007.960938 236.386719 1002.964844 239.140625 C 997.964844 241.90625 993.222656 245.78125 988.75 250.777344 C 984.265625 255.777344 979.777344 262.589844 975.304688 271.203125 L 928.769531 358.089844 C 916.699219 380.503906 906.960938 399.035156 899.550781 413.683594 C 892.136719 428.339844 885.671875 441.699219 880.164062 453.761719 C 877.402344 439.628906 874.21875 425.148438 870.601562 410.320312 C 866.980469 395.496094 862.40625 378.183594 856.894531 358.527344 L 824.324219 237.953125 L 752.753906 237.953125 C 743.277344 247.746094 734.4375 258.097656 726.253906 268.96875 L 805.191406 542.121094 C 810.011719 558.332031 817.855469 570.347656 828.714844 578.105469 C 839.570312 585.863281 851.722656 589.761719 865.167969 589.761719 C 879.296875 589.761719 891.101562 586.402344 900.585938 579.683594 C 910.0625 572.957031 917.90625 564.09375 924.113281 553.054688 L 979.4375 454.796875 C 987.015625 441.351562 993.566406 429.632812 999.085938 419.632812 C 1004.59375 409.632812 1009.507812 400.585938 1013.820312 392.476562 C 1018.128906 384.378906 1021.917969 377.050781 1025.195312 370.5 C 1028.46875 363.953125 1031.484375 357.570312 1034.246094 351.363281 C 1037.347656 357.570312 1040.53125 363.953125 1043.8125 370.5 C 1047.082031 377.050781 1050.960938 384.378906 1055.445312 392.476562 C 1059.917969 400.582031 1064.921875 409.722656 1070.4375 419.886719 C 1075.949219 430.0625 1082.5 441.867188 1090.085938 455.3125 L 1145.414062 553.058594 C 1151.960938 564.4375 1159.972656 573.40625 1169.457031 579.953125 C 1178.933594 586.5 1190.5625 589.777344 1204.359375 589.777344 C 1217.800781 589.777344 1229.953125 585.898438 1240.808594 578.144531 C 1251.667969 570.386719 1259.503906 558.335938 1264.335938 542.125 L 1311.988281 380.089844 C 1299.035156 333.886719 1276.207031 290.566406 1245.054688 253.816406 L 1216.765625 358.53125 C 1211.601562 377.84375 1207.027344 395.117188 1203.070312 410.289062 Z M 1203.070312 410.289062 " fill-opacity="1" fill-rule="nonzero"/><path fill="#ffffff" d="M 673.351562 287.957031 C 678.84375 296.882812 683.96875 306.023438 688.675781 315.367188 C 704.902344 283.152344 726.214844 253.433594 752.03125 227.609375 C 815.847656 163.78125 903.4375 127.472656 993.730469 127.472656 C 1084.027344 127.472656 1171.625 163.78125 1235.433594 227.609375 C 1299.25 291.433594 1335.546875 379.046875 1335.546875 469.363281 C 1335.546875 509.09375 1328.472656 548.28125 1315.160156 585.164062 L 1412.925781 585.164062 C 1426.738281 534.832031 1432.425781 484.707031 1427.683594 433.878906 C 1385.390625 424.21875 1356.492188 401.359375 1344.628906 360.652344 C 1332.652344 319.582031 1346.21875 284.664062 1374.78125 255.011719 C 1349.144531 208.816406 1317.386719 169.632812 1278.445312 135.886719 C 1242.445312 159.421875 1205.476562 163.847656 1168.007812 143.460938 C 1130.574219 123.089844 1114.273438 89.589844 1114.503906 47 C 1063.957031 32.96875 1013.355469 27.125 961.863281 31.714844 C 945.148438 115.679688 846.363281 150.820312 782.753906 84.8125 C 737.808594 109.984375 697.421875 140.90625 664.304688 181.648438 C 686.78125 216.382812 691.242188 252.175781 673.351562 287.957031 Z M 673.351562 287.957031 " fill-opacity="1" fill-rule="nonzero"/><path fill="#ffffff" d="M 165.570312 720.796875 C 172.523438 718.894531 178.90625 713.90625 184.765625 709.316406 C 190.363281 704.925781 189.316406 698.644531 182.964844 695.261719 C 179.957031 693.660156 176.453125 692.5 173.074219 692.179688 C 168.226562 691.71875 167.878906 689.65625 169.09375 685.640625 C 172.957031 672.851562 176.890625 660.066406 180.148438 647.121094 C 181.679688 641.046875 184.789062 637.902344 190.5 635.363281 C 197.605469 632.203125 204.242188 627.6875 210.457031 622.941406 C 214.296875 620.007812 214.109375 614.488281 210.582031 612.367188 C 206.691406 610.027344 202.304688 607.800781 197.90625 607.214844 C 193.332031 606.605469 192.242188 605.554688 193.570312 601.148438 C 197.847656 586.976562 202.097656 572.78125 205.824219 558.457031 C 207.253906 552.960938 210.292969 550.28125 215.222656 547.890625 C 222.425781 544.386719 229.34375 540.046875 235.765625 535.242188 C 239.90625 532.144531 239.628906 527.527344 235.453125 524.382812 C 232.339844 522.039062 228.386719 520.171875 224.570312 519.542969 C 218.578125 518.542969 218.039062 515.976562 219.65625 510.796875 C 223.804688 497.488281 227.722656 484.097656 231.265625 470.621094 C 232.652344 465.332031 235.734375 462.84375 240.445312 460.535156 C 247.644531 457 254.652344 452.78125 260.992188 447.878906 C 265.496094 444.398438 264.886719 439.335938 260.011719 436.238281 C 256.53125 434.03125 252.285156 432.757812 248.199219 431.863281 C 244.09375 430.960938 243.230469 429.242188 244.425781 425.394531 L 258.636719 368.4375 C 261.390625 374.304688 264.234375 380.332031 267.167969 386.542969 C 270.09375 392.742188 273.539062 399.558594 277.511719 406.964844 C 281.46875 414.386719 285.863281 422.742188 290.691406 432.050781 C 295.515625 441.359375 301.035156 451.878906 307.238281 463.597656 L 353.777344 551 C 358.25 559.621094 362.824219 566.433594 367.480469 571.425781 C 372.132812 576.433594 376.867188 580.308594 381.695312 583.0625 C 386.519531 585.820312 391.691406 587.632812 397.210938 588.492188 C 402.71875 589.351562 408.753906 589.785156 415.304688 589.785156 C 421.851562 589.785156 427.886719 589.351562 433.40625 588.492188 C 438.914062 587.632812 444.082031 585.820312 448.917969 583.0625 C 453.742188 580.308594 458.484375 576.429688 463.136719 571.425781 C 467.789062 566.433594 472.351562 559.621094 476.839844 551 L 523.371094 464.113281 C 535.085938 441.703125 544.570312 423.175781 551.8125 408.519531 C 559.050781 393.867188 565.59375 380.511719 571.457031 368.4375 C 574.214844 382.582031 577.484375 397.058594 581.28125 411.878906 C 585.070312 426.710938 589.722656 443.945312 595.242188 463.597656 L 627.816406 584.097656 L 734.332031 584.097656 L 646.949219 280.003906 C 642.117188 263.804688 634.28125 251.820312 623.421875 244.0625 C 612.5625 236.304688 600.414062 232.429688 586.96875 232.429688 C 572.832031 232.429688 561.027344 235.789062 551.550781 242.515625 C 542.066406 249.238281 534.226562 258.117188 528.023438 269.148438 L 472.699219 367.40625 C 465.113281 380.855469 458.480469 392.578125 452.792969 402.574219 C 447.105469 412.578125 442.101562 421.628906 437.800781 429.730469 C 433.484375 437.832031 429.695312 445.074219 426.421875 451.449219 C 423.144531 457.832031 420.132812 464.117188 417.375 470.328125 C 414.273438 464.117188 411.082031 457.746094 407.8125 451.191406 C 404.53125 444.644531 400.742188 437.40625 396.433594 429.472656 C 392.121094 421.542969 387.125 412.496094 381.441406 402.316406 C 375.75 392.152344 369.113281 380.339844 361.53125 366.890625 L 306.207031 269.148438 C 300.003906 257.769531 292.15625 248.808594 282.683594 242.253906 C 273.199219 235.707031 261.5625 232.429688 247.78125 232.429688 C 234.339844 232.429688 222.097656 236.304688 211.070312 244.0625 C 200.035156 251.820312 192.109375 263.804688 187.285156 280.003906 L 147.25 420.523438 C 146.742188 422.292969 146.515625 424.148438 145.996094 426.804688 C 163.808594 427.003906 180.859375 427.605469 198.359375 432.742188 C 184.886719 435.738281 172.253906 437.648438 160.21875 441.457031 C 145.949219 445.972656 132.046875 451.785156 118.296875 457.769531 C 113.507812 459.851562 108.433594 463.78125 109.917969 470.242188 C 111.429688 476.820312 117.765625 477.648438 123.214844 478.738281 C 129.96875 480.085938 130.03125 479.882812 128.042969 486.785156 C 125.4375 495.855469 122.800781 504.910156 119.964844 514.714844 C 138.136719 514.796875 155.292969 515.589844 173.683594 520.289062 C 170.273438 521.375 168.652344 522.039062 166.96875 522.414062 C 152.121094 525.710938 136.972656 528.039062 122.492188 532.527344 C 111.199219 536.03125 100.507812 541.777344 90.058594 547.46875 C 87.179688 549.035156 84.097656 554.46875 84.769531 557.226562 C 85.558594 560.476562 90.011719 563.363281 93.5 565.257812 C 96.527344 566.902344 100.425781 566.9375 104.667969 567.84375 C 101.355469 579.28125 98.207031 590.164062 94.820312 601.855469 C 113.335938 601.855469 130.9375 602.371094 148.890625 608.074219 C 146.503906 608.695312 145.066406 609.125 143.605469 609.433594 C 130.769531 612.167969 117.824219 614.453125 105.125 617.714844 C 91.074219 621.3125 77.265625 625.90625 65.234375 634.410156 C 61.625 636.960938 57.210938 640.433594 59.316406 645.183594 C 60.78125 648.507812 64.84375 651.5625 68.429688 652.886719 C 78.84375 656.71875 78.976562 656.355469 75.839844 667.175781 C 73.9375 673.734375 72.039062 680.296875 69.871094 687.792969 C 88.238281 687.230469 104.96875 688.410156 122.589844 693.355469 C 108.558594 696.480469 95.925781 698.960938 83.472656 702.148438 C 68.667969 705.9375 54.101562 710.582031 41.242188 719.199219 C 37.390625 721.777344 33.441406 724.953125 34.300781 730.371094 C 35.128906 735.648438 39.636719 737.441406 44.109375 738.058594 C 54.929688 739.558594 65.820312 740.574219 77.859375 741.917969 C 80.703125 760.359375 83.75 780.097656 86.996094 801.140625 C 89.328125 798.871094 90.664062 797.757812 91.777344 796.449219 C 107.144531 778.335938 122.625 760.316406 137.769531 742.019531 C 145.4375 732.726562 153.023438 724.21875 165.570312 720.796875 Z M 165.570312 720.796875 " fill-opacity="1" fill-rule="nonzero"/><path fill="#ffffff" d="M 222.097656 632.957031 C 221.355469 633.707031 220.578125 634.425781 219.722656 635.078125 C 214.335938 639.191406 206.097656 645.144531 196.703125 649.320312 C 195.859375 649.695312 195.402344 649.964844 195.179688 650.109375 C 195.125 650.257812 195.046875 650.496094 194.957031 650.859375 C 192.46875 660.742188 189.589844 670.558594 186.707031 680.140625 C 187.871094 680.636719 189.015625 681.183594 190.140625 681.78125 C 197.988281 685.960938 202.894531 692.929688 203.597656 700.90625 C 204.277344 708.664062 200.847656 716.109375 194.179688 721.335938 C 187.65625 726.449219 179.535156 732.808594 169.59375 735.527344 C 161.597656 737.707031 156.453125 743.363281 149.519531 751.746094 C 147.699219 753.945312 145.855469 756.148438 144.015625 758.351562 L 147.167969 770.449219 L 1430.609375 770.449219 L 1450.320312 632.957031 Z M 222.097656 632.957031 " fill-opacity="1" fill-rule="nonzero"/></svg>