<?xml version="1.0" encoding="utf-8"?>
<!-- Generator: Adobe Illustrator 16.0.0, SVG Export Plug-In . SVG Version: 6.00 Build 0)  -->
<!DOCTYPE svg PUBLIC "-//W3C//DTD SVG 1.1//EN" "http://www.w3.org/Graphics/SVG/1.1/DTD/svg11.dtd">
<svg version="1.1" id="Layer_1" xmlns="http://www.w3.org/2000/svg" xmlns:xlink="http://www.w3.org/1999/xlink" x="0px" y="0px"
	 width="960px" height="560px" viewBox="0 0 960 560" enable-background="new 0 0 960 560" xml:space="preserve">
<g>
	<g>
		<path fill="#FE590F" d="M367.48,289.465l6.967-0.027V290c0,1.645,0.429,2.961,1.286,3.953s2,1.486,3.43,1.486
			c1.536,0,2.75-0.459,3.644-1.379c0.893-0.92,1.34-2.166,1.34-3.738c0-2.52-1.805-4.323-5.413-5.413
			c-0.465-0.144-0.831-0.259-1.099-0.349c-3.037-0.946-5.288-2.291-6.752-4.033c-1.465-1.742-2.197-3.943-2.197-6.605
			c0-3.662,1.014-6.601,3.041-8.816s4.73-3.323,8.106-3.323c3.162,0,5.681,0.987,7.557,2.961c1.875,1.974,2.921,4.739,3.135,8.293
			h-6.914v-0.322c0-1.25-0.375-2.259-1.125-3.028c-0.75-0.768-1.733-1.152-2.948-1.152c-1.25,0-2.238,0.393-2.961,1.179
			c-0.724,0.786-1.085,1.858-1.085,3.216c0,0.572,0.076,1.076,0.228,1.514c0.151,0.438,0.388,0.835,0.71,1.192
			c0.732,0.804,2.305,1.545,4.716,2.224c1.072,0.286,1.893,0.527,2.465,0.724c2.68,0.911,4.658,2.215,5.936,3.913
			c1.277,1.697,1.916,3.867,1.916,6.512c0,4.02-1.117,7.248-3.35,9.686c-2.233,2.439-5.198,3.658-8.896,3.658
			c-3.483,0-6.297-1.18-8.441-3.537C368.632,296.459,367.534,293.342,367.48,289.465z"/>
		<path fill="#FE590F" d="M402.798,293.404l-3.028,8.172h-7.905l15.14-39.016h6.592l14.926,39.016h-8.173l-3.082-8.172H402.798z
			 M414.749,286.168l-4.609-12.567l-4.716,12.567H414.749z"/>
		<path fill="#FE590F" d="M447.361,262.561v6.86h-7.342v32.156h-7.61V269.42h-7.342v-6.86H447.361z"/>
		<path fill="#FE590F" d="M450.952,262.561h7.637v22.51c0,3.52,0.371,5.961,1.112,7.328c0.741,1.367,2.014,2.051,3.818,2.051
			c1.804,0,3.077-0.684,3.818-2.051s1.112-3.809,1.112-7.328v-22.51h7.637v24.76c0,2.752-0.152,4.814-0.456,6.191
			c-0.304,1.375-0.813,2.58-1.527,3.617c-1.215,1.785-2.68,3.104-4.395,3.951c-1.715,0.85-3.778,1.273-6.19,1.273
			s-4.475-0.424-6.19-1.273c-1.715-0.848-3.18-2.166-4.395-3.951c-0.715-1.037-1.224-2.197-1.528-3.484
			c-0.304-1.285-0.456-3.395-0.456-6.324V262.561z"/>
		<path fill="#FE590F" d="M490.209,301.576h-7.637v-39.016h9.271c2.947,0,5.141,0.103,6.578,0.308
			c1.438,0.206,2.666,0.541,3.686,1.005c2.215,1.036,3.902,2.483,5.064,4.341c1.16,1.858,1.741,4.038,1.741,6.538
			c0,3.02-0.831,5.579-2.492,7.677c-1.661,2.1-3.921,3.436-6.779,4.007l9.754,15.14h-9.11l-10.076-18.114V301.576z M490.209,281.533
			h1.688c3.091,0,5.435-0.559,7.034-1.675c1.598-1.116,2.398-2.747,2.398-4.891c0-2.072-0.67-3.6-2.01-4.582
			s-3.43-1.474-6.271-1.474h-2.84V281.533z"/>
		<path fill="#FE590F" d="M521.293,301.576h-7.503v-39.016h7.235l16.132,24.92v-24.92h7.476v39.016h-7.074l-16.266-25.671V301.576z"
			/>
		<path fill="#FE590F" d="M564.785,289.465l6.967-0.027V290c0,1.645,0.429,2.961,1.286,3.953s2.001,1.486,3.43,1.486
			c1.536,0,2.751-0.459,3.645-1.379s1.34-2.166,1.34-3.738c0-2.52-1.805-4.323-5.413-5.413c-0.465-0.144-0.83-0.259-1.099-0.349
			c-3.037-0.946-5.288-2.291-6.753-4.033s-2.197-3.943-2.197-6.605c0-3.662,1.014-6.601,3.042-8.816
			c2.027-2.215,4.729-3.323,8.105-3.323c3.162,0,5.682,0.987,7.557,2.961c1.876,1.974,2.921,4.739,3.136,8.293h-6.914v-0.322
			c0-1.25-0.375-2.259-1.125-3.028c-0.75-0.768-1.733-1.152-2.948-1.152c-1.25,0-2.237,0.393-2.961,1.179s-1.085,1.858-1.085,3.216
			c0,0.572,0.076,1.076,0.228,1.514c0.151,0.438,0.389,0.835,0.71,1.192c0.732,0.804,2.305,1.545,4.717,2.224
			c1.071,0.286,1.894,0.527,2.465,0.724c2.68,0.911,4.658,2.215,5.936,3.913c1.277,1.697,1.916,3.867,1.916,6.512
			c0,4.02-1.116,7.248-3.35,9.686c-2.233,2.439-5.198,3.658-8.896,3.658c-3.483,0-6.297-1.18-8.44-3.537
			C565.937,296.459,564.838,293.342,564.785,289.465z"/>
		<path fill="#FE590F" d="M601.067,301.576h-7.638v-39.016h9.7c2.466,0,4.408,0.134,5.829,0.402c1.42,0.268,2.567,0.697,3.443,1.286
			c1.607,1.09,2.871,2.528,3.791,4.314c0.92,1.787,1.381,3.698,1.381,5.734c0,3.734-1.233,6.717-3.698,8.951
			c-2.466,2.232-5.788,3.35-9.969,3.35h-2.84V301.576z M601.067,280.005h2.01c2.125,0,3.755-0.46,4.89-1.38
			c1.135-0.919,1.702-2.237,1.702-3.952c0-1.769-0.55-3.086-1.648-3.953c-1.099-0.866-2.765-1.3-4.997-1.3h-1.956V280.005z"/>
		<path fill="#FE590F" d="M629.285,301.576h-7.638v-39.016h9.271c2.948,0,5.141,0.103,6.579,0.308
			c1.438,0.206,2.666,0.541,3.685,1.005c2.215,1.036,3.903,2.483,5.064,4.341s1.742,4.038,1.742,6.538
			c0,3.02-0.831,5.579-2.492,7.677c-1.662,2.1-3.922,3.436-6.78,4.007l9.755,15.14h-9.111l-10.075-18.114V301.576z M629.285,281.533
			h1.688c3.091,0,5.436-0.559,7.034-1.675c1.599-1.116,2.398-2.747,2.398-4.891c0-2.072-0.67-3.6-2.01-4.582
			s-3.43-1.474-6.271-1.474h-2.84V281.533z"/>
		<path fill="#FE590F" d="M658.52,293.404l-3.028,8.172h-7.904l15.14-39.016h6.592l14.926,39.016h-8.173l-3.081-8.172H658.52z
			 M670.471,286.168l-4.608-12.567l-4.717,12.567H670.471z"/>
		<path fill="#FE590F" d="M697.938,287.535v14.041H690.3v-14.041l-11.174-24.975h8.388l6.753,16.802l6.699-16.802h8.333
			L697.938,287.535z"/>
		<path fill="#FE590F" d="M711.068,301.576v-39.016h7.637v39.016H711.068z"/>
		<path fill="#FE590F" d="M732.72,301.576h-7.503v-39.016h7.235l16.132,24.92v-24.92h7.477v39.016h-7.075l-16.266-25.671V301.576z"
			/>
		<path fill="#FE590F" d="M800.998,280.836c0,0.143,0.009,0.361,0.026,0.656s0.026,0.514,0.026,0.656
			c0,1.68-0.151,3.238-0.455,4.677s-0.769,2.792-1.394,4.06c-1.84,3.662-4.346,6.49-7.517,8.48
			c-3.171,1.992-6.757,2.988-10.759,2.988c-2.947,0-5.672-0.563-8.173-1.688s-4.752-2.797-6.753-5.012
			c-1.661-1.857-2.93-3.965-3.805-6.324c-0.876-2.357-1.313-4.858-1.313-7.502c0-2.716,0.526-5.293,1.581-7.731
			c1.054-2.438,2.6-4.658,4.636-6.659c1.93-1.911,4.077-3.332,6.444-4.261c2.367-0.929,4.989-1.393,7.865-1.393
			c4.198,0,7.824,1.027,10.88,3.082c3.055,2.054,5.412,5.056,7.074,9.003h-9.271c-1.126-1.411-2.452-2.469-3.979-3.175
			c-1.527-0.706-3.238-1.059-5.132-1.059c-3.341,0-6.173,1.206-8.494,3.618c-2.323,2.412-3.484,5.342-3.484,8.79
			c0,3.501,1.175,6.454,3.524,8.856c2.349,2.402,5.238,3.604,8.669,3.604c2.375,0,4.532-0.643,6.471-1.93
			c1.938-1.285,3.372-3.018,4.301-5.197H776.64v-6.539H800.998z"/>
	</g>
	<g>
		<path fill-rule="evenodd" clip-rule="evenodd" fill="#FE590F" d="M300.676,321.715c1.48-1.359,2.915-2.772,4.374-4.153
			c1.611-1.526,2.836-3.452,4.322-5.119c2.662-2.982,4.698-6.367,6.53-9.888c0.739-1.42,1.399-2.885,2.096-4.327
			c-0.115-0.086-0.231-0.17-0.347-0.256c-8.653,15.714-21.643,25.719-39.252,29.069c-17.583,3.344-33.234-1.259-47.257-12.676
			c0.659-0.287,0.965-0.454,1.29-0.558c3.619-1.182,7.283-2.238,10.854-3.551c6.606-2.424,13.202-4.894,19.722-7.542
			c7.095-2.88,14.2-5.771,21.117-9.046c8.736-4.138,17.342-8.563,25.903-13.056c10.245-5.376,20.064-11.469,29.476-18.206
			c6.063-4.341,11.914-8.946,17.094-14.338c2.981-3.105,5.694-6.415,7.473-10.403c2.303-5.16,0.382-9.648-4.888-11.63
			c-3.386-1.273-6.896-1.663-10.44-1.76c-3.193-0.087-6.396-0.028-9.582,0.208c-5.392,0.398-10.505,0.832-15.818,1.797
			c-5.418,0.983-11.044,2.641-16.337,4.17c-2.563,0.741-5.053,1.684-7.505,2.73c-2.408,1.029-4.659,2.307-6.844,3.746
			c-1.041,0.687-1.982,1.219-3.132,2.064l24.035-3.251c5.661-0.403,13.401-0.436,17.755,3.876c2.196,2.176,3.339,5.674,2.532,8.741
			c-0.471,1.792-1.201,3.598-2.197,5.151c-3.885,6.059-9.247,10.728-14.879,15.07c-8.694,6.702-18.083,12.332-27.798,17.402
			c-8.734,4.562-17.731,8.561-26.905,12.175c-11.139,4.391-22.524,7.949-34.17,10.7c-1.347,0.317-2.229,0.02-3.139-1.117
			c-3.921-4.896-7-10.251-9.225-16.105c-1.7-4.482-2.854-9.135-3.237-13.875c-0.575-7.143-0.103-14.236,1.976-21.187
			c2.081-6.961,5.261-13.341,9.752-19.019c5.805-7.336,13.008-12.922,21.612-16.677c4.601-2.007,9.384-3.485,14.331-4.08
			c4.112-0.494,8.314-0.483,12.465-0.344c4.065,0.136,8.061,1.002,11.938,2.299c1.66,0.556,3.314,1.125,4.973,1.688
			c-0.185-0.387-0.444-0.621-0.749-0.753c-2.08-0.907-4.11-1.997-6.271-2.641c-4.137-1.232-8.297-2.587-12.549-3.2
			c-6.33-0.912-12.718-0.849-19.088,0.28c-5.65,1.001-11.046,2.697-16.184,5.181c-9.901,4.787-17.947,11.736-24.161,20.846
			c-4.987,7.314-8.229,15.32-9.711,24.003c-0.579,3.389-0.631,6.872-0.864,10.315c-0.057,0.839-0.193,1.461-0.987,1.963
			c-4.544,2.891-9.1,5.767-13.556,8.785c-6.278,4.255-12.266,8.893-17.682,14.224c-3.818,3.758-7.473,7.639-9.497,12.753
			c-1.747,4.419-0.535,8.338,3.665,10.426c3.03,1.505,6.276,1.973,9.626,2.296c4.841,0.464,9.627,0.054,14.417-0.355
			c3.045-0.259,6.072-0.799,9.087-1.333c3.787-0.67,7.567-1.398,11.325-2.22c3.42-0.744,6.809-1.633,10.203-2.485
			c1.03-0.26,1.86-0.11,2.592,0.73c0.658,0.757,1.372,1.485,2.152,2.113c5.553,4.464,11.528,8.181,18.237,10.72
			c7.136,2.7,14.487,4.015,22.09,4.003c7.063-0.011,13.973-1.086,20.554-3.66c3.725-1.458,7.329-3.263,10.865-5.143
			c2.112-1.125,4.004-2.673,5.951-4.088 M209.716,311.481c-5.613,0.271-11.248,0.478-16.562-1.781
			c-4.624-1.964-6.043-5.297-4.361-10.187c1.605-4.666,7.328-11.404,11.731-14.541c1.766,9.587,5.387,18.252,11.173,26.205
			C210.813,311.317,210.267,311.454,209.716,311.481z"/>
	</g>
</g>
</svg>
