<?xml version="1.0" encoding="UTF-8"?>
<svg id="Layer_2" data-name="Layer 2" xmlns="http://www.w3.org/2000/svg" viewBox="0 0 91.47 91.47">
  <defs>
    <style>
      .cls-1 {
        fill: none;
        stroke: #f5b719;
        stroke-linecap: round;
        stroke-width: 1.22px;
      }

      .cls-1, .cls-2 {
        stroke-miterlimit: 10;
      }

      .cls-2 {
        fill: #f5b719;
        stroke: #fff;
        stroke-width: .5px;
      }

      .cls-3 {
        fill: #306bac;
      }

      .cls-4 {
        fill: #034832;
      }
    </style>
  </defs>
  <g id="Layer_1-2" data-name="Layer 1">
    <g>
      <circle class="cls-4" cx="45.85" cy="45.61" r="41.5"/>
      <g>
        <line class="cls-1" x1="46.33" y1="90.86" x2="46.49" y2="81.69"/>
        <line class="cls-1" x1="23.69" y1="85.11" x2="29.36" y2="76.79"/>
        <line class="cls-1" x1="6.96" y1="68.82" x2="17.12" y2="62.11"/>
        <line class="cls-1" x1=".61" y1="46.33" x2="17.12" y2="46.2"/>
        <line class="cls-1" x1="6.36" y1="23.69" x2="17.12" y2="27.84"/>
        <line class="cls-1" x1="22.66" y1="6.96" x2="26.91" y2="13.15"/>
        <line class="cls-1" x1="45.14" y1=".61" x2="45.38" y2="8.26"/>
        <line class="cls-1" x1="67.78" y1="6.36" x2="63.63" y2="14.38"/>
        <line class="cls-1" x1="84.51" y1="22.66" x2="73.42" y2="31.51"/>
        <line class="cls-1" x1="90.86" y1="45.14" x2="73.42" y2="44.97"/>
        <line class="cls-1" x1="85.11" y1="67.78" x2="74.64" y2="62.11"/>
        <line class="cls-1" x1="68.82" y1="84.51" x2="64.85" y2="78.01"/>
      </g>
      <path class="cls-3" d="M64.86,49.75c-.39-.5-.8-.97-1.23-1.42-.02-.02-.04-.04-.05-.05-.02-.02-.04-.04-.05-.05-.02-.02-.04-.04-.06-.06-.02-.02-.04-.04-.05-.05-.02-.02-.04-.04-.05-.05-.02-.02-.04-.04-.05-.05-.02-.02-.04-.04-.06-.06-.02-.02-.04-.04-.05-.05-.02-.02-.04-.04-.05-.05-.02-.02-.04-.04-.05-.05-.02-.02-.04-.04-.06-.06-.02-.02-.04-.04-.05-.05-.02-.02-.04-.04-.05-.05-.02-.02-.04-.04-.05-.05-.02-.02-.04-.04-.06-.06-.02-.02-.04-.04-.05-.05-.02-.02-.04-.04-.05-.05-.02-.02-.04-.04-.05-.05-.02-.02-.04-.04-.05-.05-.02-.02-.04-.04-.06-.06-.02-.02-.04-.04-.05-.05-.02-.02-.04-.04-.05-.05-.02-.02-.04-.04-.05-.05-.02-.02-.04-.04-.06-.06-.02-.02-.04-.04-.05-.05-.02-.02-.04-.04-.05-.05-.02-.02-.04-.04-.05-.05-.02-.02-.04-.04-.06-.06-.02-.02-.04-.04-.05-.05-.02-.02-.04-.04-.05-.05-.02-.02-.04-.04-.05-.05-.02-.02-.04-.04-.06-.06-.02-.02-.04-.04-.05-.05-.02-.02-.04-.04-.05-.05-.02-.02-.04-.04-.05-.05-.02-.02-.04-.04-.05-.05-.02-.02-.04-.04-.06-.06-.02-.02-.04-.04-.05-.05-.02-.02-.04-.04-.05-.05-.02-.02-.04-.04-.05-.05-.02-.02-.04-.04-.06-.06-.02-.02-.04-.04-.05-.05-.02-.02-.04-.04-.05-.05-.02-.02-.04-.04-.05-.05-.02-.02-.04-.04-.06-.06-.02-.02-.04-.04-.05-.05-.02-.02-.04-.04-.05-.05-.02-.02-.04-.04-.05-.05-.02-.02-.04-.04-.06-.06-.02-.02-.04-.04-.05-.05-1.25-1.31-2.67-2.37-4.25-3.19-2.1-1.09-4.76-2.18-7.99-3.29-2.17-.77-3.81-1.41-4.92-1.92-.33-.15-.64-.31-.94-.48-.11-.33-.18-.67-.18-1.04,0-1.16.34-2.05,1.01-2.68.67-.63,1.54-.94,2.6-.94.66,0,1.26.09,1.8.26.14.48.24.99.26,1.58h.05s0,.04,0,.05h.05s0,.04,0,.05h.05s0,.04,0,.05h.05s0,.04,0,.05h.05s0,.04,0,.05h.05s0,.04,0,.05h.05s0,.04,0,.05h.05s0,.04,0,.05h.05s0,.04,0,.05h.05s0,.04,0,.05h.05s0,.04,0,.05h.05s0,.04,0,.05h.05s0,.04,0,.05h.05s0,.04,0,.05h.05s0,.04,0,.05h.05s0,.04,0,.05h.05s0,.04,0,.05h.05s0,.04,0,.05h.05s0,.04,0,.05h.05s0,.04,0,.05h.05s0,.04,0,.05h.05s0,.04,0,.05h.05s0,.04,0,.05h.05s0,.04,0,.05h.05s0,.04,0,.05h.05s0,.04,0,.05h.05s0,.04,0,.05h.05s0,.04,0,.05h.05s0,.04,0,.05h.05s0,.04,0,.05h.05s0,.04,0,.05h.05s0,.04,0,.05h.05s0,.04,0,.05h.05s0,.04,0,.05h.05s0,.04,0,.05h.05s0,.04,0,.05h.05s0,.04,0,.05h.05s0,.04,0,.05h.05s0,.04,0,.05h.05s0,.04,0,.05h.05s0,.04,0,.05h.05s0,.04,0,.05h.05s0,.04,0,.05h.05s0,.04,0,.05h.05s0,.04,0,.05h.05s0,.04,0,.05h.05s0,.04,0,.05h.05s0,.04,0,.05h.05s0,.04,0,.05h.05s0,.04,0,.05h.05s0,.04,0,.05h15.41c-.21-4.4-1.7-7.94-4.45-10.61-.02-.02-.04-.04-.05-.05-.02-.02-.04-.04-.05-.05-.02-.02-.04-.04-.06-.06-.02-.02-.04-.04-.05-.05-.02-.02-.04-.04-.05-.05-.02-.02-.04-.04-.05-.05-.02-.02-.04-.04-.06-.06-.02-.02-.04-.04-.05-.05-.02-.02-.04-.04-.05-.05-.02-.02-.04-.04-.05-.05-.02-.02-.04-.04-.06-.06-.02-.02-.04-.04-.05-.05-.02-.02-.04-.04-.05-.05-.02-.02-.04-.04-.05-.05-.02-.02-.04-.04-.06-.06-.02-.02-.04-.04-.05-.05-.02-.02-.04-.04-.05-.05-.02-.02-.04-.04-.05-.05-.02-.02-.04-.04-.05-.05-.02-.02-.04-.04-.06-.06-.02-.02-.04-.04-.05-.05-.02-.02-.04-.04-.05-.05-.02-.02-.04-.04-.05-.05-.02-.02-.04-.04-.06-.06-.02-.02-.04-.04-.05-.05-.02-.02-.04-.04-.05-.05-.02-.02-.04-.04-.05-.05-.02-.02-.04-.04-.06-.06-.02-.02-.04-.04-.05-.05-.02-.02-.04-.04-.05-.05-.02-.02-.04-.04-.05-.05-.02-.02-.04-.04-.06-.06-.02-.02-.04-.04-.05-.05-.02-.02-.04-.04-.05-.05-.02-.02-.04-.04-.05-.05-.02-.02-.04-.04-.05-.05-.02-.02-.04-.04-.06-.06-.02-.02-.04-.04-.05-.05-.02-.02-.04-.04-.05-.05-.02-.02-.04-.04-.05-.05-.02-.02-.04-.04-.06-.06-.02-.02-.04-.04-.05-.05-.02-.02-.04-.04-.05-.05-.02-.02-.04-.04-.05-.05-.02-.02-.04-.04-.06-.06-.02-.02-.04-.04-.05-.05-.02-.02-.04-.04-.05-.05-.02-.02-.04-.04-.05-.05-.02-.02-.04-.04-.06-.06-.02-.02-.04-.04-.05-.05-.4-.39-.83-.77-1.28-1.13-3.54-2.77-8.28-4.16-14.22-4.16-3.67,0-6.95.6-9.84,1.81-2.89,1.21-5.16,2.98-6.8,5.32-1.64,2.34-2.46,5.15-2.46,8.43s.76,5.85,2.28,7.85c.39.52.8,1,1.23,1.45.02.02.04.04.05.05.02.02.04.04.05.05.02.02.04.04.05.05.02.02.04.04.05.05.02.02.04.04.05.05.02.02.04.04.05.05.02.02.04.04.05.05.02.02.04.04.05.05.02.02.04.04.05.05.02.02.04.04.05.05.02.02.04.04.05.05.02.02.04.04.05.05.02.02.04.04.05.05.02.02.04.04.05.05.02.02.04.04.05.05.02.02.04.04.05.05.02.02.04.04.05.05.02.02.04.04.05.05.02.02.04.04.05.05.02.02.04.04.05.05.02.02.04.04.05.05.02.02.04.04.05.05.02.02.04.04.05.05.02.02.04.04.05.05.02.02.04.04.05.05.02.02.04.04.05.05.02.02.04.04.05.05.02.02.04.04.05.05.02.02.04.04.05.05.02.02.04.04.05.05.02.02.04.04.05.05.02.02.04.04.05.05.02.02.04.04.05.05.02.02.04.04.05.05.02.02.04.04.05.05.02.02.04.04.05.05.02.02.04.04.05.05.02.02.04.04.05.05.02.02.04.04.05.05.02.02.04.04.05.05.02.02.04.04.05.05.02.02.04.04.05.05.02.02.04.04.05.05.02.02.04.04.05.05.02.02.04.04.05.05.02.02.04.04.05.05.02.02.04.04.05.05.02.02.04.04.05.05.02.02.04.04.05.05.02.02.04.04.05.05,1.24,1.33,2.63,2.38,4.18,3.16,2.05,1.04,4.74,2.11,8.07,3.22,2.57.83,4.55,1.6,5.96,2.3.1.36.16.73.16,1.14,0,1.16-.42,2.06-1.27,2.71-.84.65-1.92.98-3.22.98-.71,0-1.34-.1-1.92-.3-.21-.6-.36-1.27-.43-2.06h-.05s0-.04,0-.05h-.05s0-.04,0-.05h-.05s0-.04,0-.05h-.05s0-.04,0-.05h-.05s0-.04,0-.05h-.05s0-.04,0-.05h-.05s0-.04,0-.05h-.05s0-.04,0-.05h-.05s0-.04,0-.05h-.05s0-.04,0-.05h-.05s0-.04,0-.05h-.05s0-.04,0-.05h-.05s0-.04,0-.05h-.05s0-.04,0-.05h-.05s0-.04,0-.05h-.05s0-.04,0-.05h-.05s0-.04,0-.05h-.05s0-.04,0-.05h-.05s0-.04,0-.05h-.05s0-.04,0-.05h-.05s0-.04,0-.05h-.05s0-.04,0-.05h-.05s0-.04,0-.05h-.05s0-.04,0-.05h-.05s0-.04,0-.05h-.05s0-.04,0-.05h-.05s0-.04,0-.05h-.05s0-.04,0-.05h-.05s0-.04,0-.05h-.05s0-.04,0-.05h-.05s0-.04,0-.05h-.05s0-.04,0-.05h-.05s0-.04,0-.05h-.05s0-.04,0-.05h-.05s0-.04,0-.05h-.05s0-.04,0-.05h-.05s0-.04,0-.05h-.05s0-.04,0-.05h-.05s0-.04,0-.05h-.05s0-.04,0-.05h-.05s0-.04,0-.05h-.05s0-.04,0-.05h-.05s0-.04,0-.05h-.05s0-.04,0-.05h-.05s0-.04,0-.05h-.05s0-.04,0-.05h-.05s0-.04,0-.05h-.05s0-.04,0-.05h-.05s0-.04,0-.05h-.05s0-.04,0-.05h-.05s0-.04,0-.05h-15.12c.25,4.61,1.86,8.28,4.81,11.01.02.02.04.04.05.05.02.02.04.04.05.05.02.02.04.04.05.05.02.02.04.04.05.05.02.02.04.04.05.05.02.02.04.04.05.05.02.02.04.04.05.05.02.02.04.04.05.05.02.02.04.04.05.05.02.02.04.04.05.05.02.02.04.04.05.05.02.02.04.04.05.05.02.02.04.04.05.05.02.02.04.04.05.05.02.02.04.04.05.05.02.02.04.04.05.05.02.02.04.04.05.05.02.02.04.04.05.05.02.02.04.04.05.05.02.02.04.04.05.05.02.02.04.04.05.05.02.02.04.04.05.05.02.02.04.04.05.05.02.02.04.04.05.05.02.02.04.04.05.05.02.02.04.04.05.05.02.02.04.04.05.05.02.02.04.04.05.05.02.02.04.04.05.05.02.02.04.04.05.05.02.02.04.04.05.05.02.02.04.04.05.05.02.02.04.04.05.05.02.02.04.04.05.05.02.02.04.04.05.05.02.02.04.04.05.05.02.02.04.04.05.05.02.02.04.04.05.05.02.02.04.04.05.05.02.02.04.04.05.05.02.02.04.04.05.05.02.02.04.04.05.05.02.02.04.04.05.05.02.02.04.04.05.05.02.02.04.04.05.05.02.02.04.04.05.05.02.02.04.04.05.05.02.02.04.04.05.05.02.02.04.04.05.05.02.02.04.04.05.05.43.41.9.8,1.39,1.16,3.81,2.82,8.68,4.23,14.61,4.23,3.91,0,7.29-.7,10.16-2.1,2.87-1.4,5.06-3.3,6.58-5.72,1.52-2.41,2.28-5.14,2.28-8.18s-.76-5.46-2.28-7.42Z"/>
      <path class="cls-2" d="M33.5,68.93c-3.81-2.82-5.86-6.86-6.15-12.12h15.12c.14,1.78.67,3.09,1.59,3.91.92.82,2.1,1.23,3.54,1.23,1.3,0,2.38-.33,3.22-.98.84-.65,1.27-1.56,1.27-2.71,0-1.49-.7-2.65-2.1-3.47-1.4-.82-3.67-1.74-6.8-2.75-3.33-1.11-6.02-2.18-8.07-3.22-2.05-1.04-3.84-2.56-5.35-4.56-1.52-2-2.28-4.62-2.28-7.85s.82-6.09,2.46-8.43c1.64-2.34,3.91-4.11,6.8-5.32,2.89-1.21,6.17-1.81,9.84-1.81,5.93,0,10.67,1.39,14.22,4.16,3.54,2.77,5.44,6.67,5.68,11.68h-15.41c-.05-1.54-.52-2.7-1.41-3.47-.89-.77-2.04-1.16-3.44-1.16-1.06,0-1.93.31-2.6.94-.68.63-1.01,1.52-1.01,2.68,0,.96.37,1.8,1.12,2.5.75.7,1.67,1.3,2.78,1.81,1.11.51,2.75,1.15,4.92,1.92,3.23,1.11,5.9,2.21,7.99,3.29,2.1,1.09,3.91,2.6,5.43,4.56,1.52,1.95,2.28,4.43,2.28,7.42s-.76,5.76-2.28,8.18c-1.52,2.41-3.71,4.32-6.58,5.72-2.87,1.4-6.26,2.1-10.16,2.1-5.93,0-10.81-1.41-14.61-4.23Z"/>
    </g>
  </g>
</svg>