<?xml version="1.0" encoding="UTF-8"?>
<svg id="Layer_2" data-name="Layer 2" xmlns="http://www.w3.org/2000/svg" viewBox="0 0 83 83">
  <defs>
    <style>
      .cls-1 {
        fill: none;
      }

      .cls-2 {
        fill: #f5b719;
      }

      .cls-3 {
        fill: #316cac;
      }

      .cls-4 {
        fill: #034832;
      }

      .cls-5 {
        fill: #fff;
      }
    </style>
  </defs>
  <g id="Layer_1-2" data-name="Layer 1">
    <g>
      <circle class="cls-4" cx="41.5" cy="41.5" r="41.5"/>
      <g>
        <path class="cls-2" d="M71.78,25.36v-14.18c0-1.75-1.43-3.18-3.18-3.18H14.4c-1.76,0-3.18,1.43-3.18,3.18v14.18c0,1.54,1.1,2.82,2.55,3.12l3.55.06h5.48v19.08c0,.98.79,1.77,1.77,1.77h33.83c.98,0,1.77-.79,1.77-1.77v-11.59h0v-7.48h5.48l3.55-.06c1.46-.29,2.56-1.58,2.56-3.11ZM56.64,45.85h-30.29v-6.9l9.48-6.64,5.56,4.58s.01,0,.02.01c.03.02.06.04.09.07.02.01.04.03.06.04.03.02.06.04.09.05.02.01.04.03.07.04s.05.02.07.04c.03.01.06.03.09.04.02,0,.04.01.06.02.03.01.07.02.1.03.02,0,.04,0,.06.01.04,0,.07.02.11.02.02,0,.04,0,.07,0,.03,0,.07,0,.1.01.03,0,.05,0,.08,0,.03,0,.06,0,.09,0,.03,0,.06,0,.1,0,.02,0,.05,0,.07,0,.04,0,.07,0,.1-.01.02,0,.04,0,.06,0,.03,0,.07-.02.1-.02.02,0,.04-.01.07-.02.03,0,.06-.02.09-.03l.08-.03s.05-.02.07-.03c.03-.01.06-.03.09-.04.02,0,.04-.02.06-.03.03-.02.06-.04.09-.06,0,0,.01,0,.02-.01l7.16-5.02,5.94,4.9v8.98ZM26.35,34.61v-14.56h30.29v12.21s-4.73-3.9-4.73-3.9c-.62-.51-1.49-.54-2.15-.09l-7.16,5.02-5.56-4.59c-.62-.51-1.49-.54-2.15-.09l-8.55,5.99ZM68.23,24.99h-8.04v-4.95h8.04v4.95Z"/>
        <rect class="cls-5" x="60.19" y="20.05" width="8.04" height="4.95"/>
        <path class="cls-1" d="M43.54,36.98s-.01,0-.02.01c-.03.02-.06.04-.09.06-.02,0-.04.02-.06.03-.03.02-.06.03-.09.04-.02.01-.05.02-.07.03l-.08.03s-.06.02-.09.03c-.02,0-.04.01-.07.02-.04,0-.07.02-.1.02-.02,0-.04,0-.06,0-.04,0-.07,0-.1.01-.02,0-.05,0-.07,0-.03,0-.06,0-.1,0-.03,0-.06,0-.09,0-.03,0-.05,0-.08,0-.04,0-.07,0-.1-.01-.02,0-.04,0-.07,0-.04,0-.07-.01-.11-.02-.02,0-.04,0-.06-.01-.04,0-.07-.02-.1-.03-.02,0-.04-.01-.06-.02-.03-.01-.06-.02-.09-.04-.02-.01-.05-.02-.07-.04s-.04-.02-.07-.04c-.03-.02-.06-.03-.09-.05-.02-.01-.04-.02-.06-.04-.03-.02-.06-.04-.09-.07,0,0-.01,0-.02-.01l-5.56-4.58-9.48,6.64v6.9h30.29s0-8.98,0-8.98l-5.94-4.9-7.16,5.02Z"/>
        <rect class="cls-5" x="14.77" y="20.05" width="8.04" height="4.95"/>
        <path class="cls-1" d="M37.05,28.71l5.56,4.59,7.16-5.02c.66-.46,1.53-.42,2.15.09l4.73,3.9v-12.21s-30.29,0-30.29,0v14.56s8.54-5.99,8.54-5.99c.66-.46,1.53-.42,2.15.09Z"/>
        <rect class="cls-5" x="14.77" y="11.55" width="53.46" height="4.95"/>
        <path class="cls-3" d="M37.05,28.71l5.56,4.59,7.16-5.02c.66-.46,1.53-.42,2.15.09l4.73,3.9v-12.21s-30.29,0-30.29,0v14.56s8.54-5.99,8.54-5.99c.66-.46,1.53-.42,2.15.09Z"/>
        <g>
          <path class="cls-2" d="M13.77,60.76h-.43c-.98,0-1.77.79-1.77,1.77s.79,1.77,1.77,1.77h4.4c.98,0,1.77-.79,1.77-1.77s-.79-1.77-1.77-1.77h-.43v-31.28h-3.55v31.28Z"/>
          <path class="cls-2" d="M65.68,60.76h-.43c-.98,0-1.77.79-1.77,1.77s.79,1.77,1.77,1.77h4.4c.98,0,1.77-.79,1.77-1.77s-.79-1.77-1.77-1.77h-.43v-31.28h-3.55v31.28Z"/>
        </g>
        <path class="cls-5" d="M43.54,32.36s-.01,0-.02.01c-.03.02-.06.04-.09.06-.02,0-.04.02-.06.03-.03.02-.06.03-.09.04-.02.01-.05.02-.07.03l-.08.03s-.06.02-.09.03c-.02,0-.04.01-.07.02-.04,0-.07.02-.1.02-.02,0-.04,0-.06,0-.04,0-.07,0-.1.01-.02,0-.05,0-.07,0-.03,0-.06,0-.1,0-.03,0-.06,0-.09,0-.03,0-.05,0-.08,0-.04,0-.07,0-.1-.01-.02,0-.04,0-.07,0-.04,0-.07-.01-.11-.02-.02,0-.04,0-.06-.01-.04,0-.07-.02-.1-.03l-.06-.02s-.06-.02-.09-.04c-.02-.01-.05-.02-.07-.04s-.04-.02-.07-.04c-.03-.02-.06-.03-.09-.05-.02-.01-.04-.02-.06-.04-.03-.02-.06-.04-.09-.07,0,0-.01,0-.02-.01l-5.56-4.58-9.48,6.64v6.9h30.29s0-8.98,0-8.98l-5.94-4.9-7.16,5.02Z"/>
        <path class="cls-4" d="M43.54,36.98s-.01,0-.02.01c-.03.02-.06.04-.09.06-.02,0-.04.02-.06.03-.03.02-.06.03-.09.04-.02.01-.05.02-.07.03l-.08.03s-.06.02-.09.03c-.02,0-.04.01-.07.02-.04,0-.07.02-.1.02-.02,0-.04,0-.06,0-.04,0-.07,0-.1.01-.02,0-.05,0-.07,0-.03,0-.06,0-.1,0-.03,0-.06,0-.09,0-.03,0-.05,0-.08,0-.04,0-.07,0-.1-.01-.02,0-.04,0-.07,0-.04,0-.07-.01-.11-.02-.02,0-.04,0-.06-.01-.04,0-.07-.02-.1-.03l-.06-.02s-.06-.02-.09-.04c-.02-.01-.05-.02-.07-.04s-.04-.02-.07-.04c-.03-.02-.06-.03-.09-.05-.02-.01-.04-.02-.06-.04-.03-.02-.06-.04-.09-.07,0,0-.01,0-.02-.01l-5.56-4.58-9.48,6.64v6.9h30.29s0-8.98,0-8.98l-5.94-4.9-7.16,5.02Z"/>
      </g>
    </g>
  </g>
</svg>