<?xml version="1.0" encoding="UTF-8"?>
<svg id="Layer_2" data-name="Layer 2" xmlns="http://www.w3.org/2000/svg" viewBox="0 0 83 83">
  <defs>
    <style>
      .cls-1 {
        fill: #2d2366;
      }

      .cls-2 {
        fill: #f5b719;
      }

      .cls-3 {
        fill: #e71d24;
      }

      .cls-4 {
        fill: #306bac;
      }

      .cls-5 {
        fill: #fff;
      }
    </style>
  </defs>
  <g id="Layer_1-2" data-name="Layer 1">
    <g>
      <circle class="cls-2" cx="41.5" cy="41.5" r="41.5"/>
      <polygon class="cls-1" points="51.86 27.09 51.87 27.09 51.87 27.09 51.86 27.09"/>
      <path class="cls-3" d="M11,66h8.18l2.12-11.34c.04-.2.19-.35.36-.35h12.68L24.23,0h-.84s-12.39,66-12.39,66Z"/>
      <g>
        <path class="cls-5" d="M45.9,34.08c1.09-2.33,1.33-5.17.65-7.93-.74-2.98-.49-6.08.71-8.64,1.04-2.22,2.72-3.88,4.76-4.74-.64-.29-1.33-.43-2.05-.42h0c-1.18,0-2.43.4-3.68,1.14-2.35,1.4-4.65,4.05-6.32,7.61-1.67,3.56-2.38,7.34-2.19,10.55.19,3.14,1.21,5.69,3.01,7.05,2.22-.68,4.04-2.32,5.11-4.61Z"/>
        <path class="cls-5" d="M53,13.34c-2.22.68-4.04,2.33-5.11,4.61-1.09,2.33-1.33,5.17-.64,7.93.74,2.99.49,6.08-.71,8.64-1.04,2.22-2.72,3.88-4.76,4.74,1.71.77,3.72.48,5.72-.72,2.35-1.4,4.65-4.05,6.32-7.61,1.67-3.56,2.38-7.35,2.19-10.56-.19-3.14-1.21-5.69-3.01-7.04Z"/>
      </g>
      <path class="cls-4" d="M59.61,0H23.56s10.25,54.65,10.25,54.65v.04s2.13,11.31,2.13,11.31h8.18l-2.09-11.13c-.03-.14,0-.28.07-.39.07-.11.18-.17.29-.17h18.95c.17,0,.32.15.36.35l2.13,11.34h8.18L59.61,0ZM54.45,31.4c-1.74,3.7-4.13,6.48-6.63,7.97-2.5,1.49-5.14,1.7-7.27.19-2.12-1.51-3.3-4.44-3.5-7.86-.2-3.42.55-7.36,2.28-11.07,1.74-3.7,4.13-6.48,6.64-7.98,1.33-.79,2.7-1.23,4.01-1.23h0c1.16,0,2.26.32,3.26,1.03,0,0,0,0,0,0,0,0,0,0,0,0h0c2.12,1.52,3.29,4.44,3.49,7.85.2,3.42-.55,7.37-2.29,11.07Z"/>
    </g>
  </g>
</svg>