<?xml version="1.0" encoding="UTF-8"?>
<svg id="Layer_2" data-name="Layer 2" xmlns="http://www.w3.org/2000/svg" viewBox="0 0 83 90.39">
  <defs>
    <style>
      .cls-1 {
        fill: #f5b719;
      }

      .cls-2 {
        fill: #e71d24;
      }

      .cls-3 {
        fill: #306bac;
      }

      .cls-4 {
        fill: #fff;
      }
    </style>
  </defs>
  <g id="Layer_1-2" data-name="Layer 1">
    <g>
      <circle class="cls-1" cx="41.5" cy="48.89" r="41.5"/>
      <path class="cls-2" d="M45.89,10.18l-3.38-9.46c-.17-.44-.56-.72-1-.72s-.83.29-.99.72l-3.46,9.56c2.73,1.74,6.13,1.71,8.83-.1Z"/>
      <g>
        <polygon class="cls-4" points="64.43 31.59 26.27 31.59 26.27 31.59 18.57 31.59 18.57 58.32 18.57 58.79 18.57 61.67 64.43 61.67 64.43 58.79 64.43 58.79 64.43 31.59"/>
        <path class="cls-3" d="M65.16,65.47c.3-.13.58-.32.82-.56.52-.52.8-1.21.79-1.94v-30.39c.01-.74-.26-1.46-.78-1.99-.52-.53-1.22-.84-1.96-.86h-20.57s-24.39,0-24.39,0c-1.56.02-2.83,1.28-2.85,2.85v30.39c0,.73.3,1.42.82,1.92.26.25.56.45.89.58H7.96c.54,1.98,2.13,3.35,3.95,3.38h59.24c1.8-.06,3.36-1.43,3.89-3.39h-9.88ZM18.97,33.14c0-.38.31-.68.68-.68h19.88s23.82,0,23.82,0c.38,0,.68.31.68.68v26.97c0,.38-.31.68-.68.68H19.65c-.38,0-.68-.31-.68-.68v-26.97Z"/>
      </g>
      <path class="cls-4" d="M38.56,22.61c1.65-1.7,4.25-1.69,5.9,0l4.31.73.69-3.27-3.74-10.41h0c-2.62,1.64-5.85,1.67-8.49.08l-3.76,10.33.89,2.75,4.21-.23Z"/>
      <path class="cls-2" d="M45.98,22.67l-2.26-2.51h0c-1.21-1.34-3.13-1.34-4.34,0l-2.35,2.52-3.52-2.52-.16,40.71h16.32s-.16-40.71-.16-40.71l-3.52,2.52Z"/>
    </g>
  </g>
</svg>