<?xml version="1.0" encoding="UTF-8"?>
<svg id="Layer_2" data-name="Layer 2" xmlns="http://www.w3.org/2000/svg" viewBox="0 0 83 83">
  <defs>
    <style>
      .cls-1 {
        fill: #f5b719;
      }

      .cls-2 {
        fill: #e71d24;
      }

      .cls-3 {
        fill: #306bac;
      }

      .cls-4 {
        fill: #fff;
      }
    </style>
  </defs>
  <g id="Roundel">
    <circle class="cls-3" cx="41.5" cy="41.5" r="41.5"/>
    <g>
      <g>
        <path class="cls-2" d="M32.43,51.06v11.7h21.49v-12.13c0-.77.12-1.53.34-2.26l2.53-8.21c.14-.44.2-.9.2-1.36V15.17c0-.85-.69-1.53-1.53-1.53s-1.54.69-1.54,1.53v12.28c0,.85-.69,1.53-1.53,1.53s-1.53-.69-1.53-1.53v-12.28c0-.85-.69-1.53-1.54-1.53s-1.53.69-1.53,1.53v12.28c0,.85-.69,1.53-1.53,1.53s-1.54-.69-1.54-1.53v-12.28c0-.85-.69-1.53-1.53-1.53s-1.53.69-1.53,1.53v12.28c0,.85-.69,1.53-1.54,1.53s-1.53-.69-1.53-1.53v-12.28c0-.85-.69-1.53-1.53-1.53s-1.54.69-1.54,1.53v12.28c0,.85-.69,1.53-1.53,1.53s-1.53-.69-1.53-1.53h-4.61v10.93c0,.67.14,1.32.42,1.93.89,1.92,2.59,5.61,3.47,7.53.47,1.01.71,2.11.71,3.22Z"/>
        <rect class="cls-4" x="60.06" y="18.24" width="3.07" height="6.14"/>
        <path class="cls-4" d="M32.43,18.24h-6.4c-.62,0-1.19-.38-1.42-.96-1.59-3.94-5.46-6.72-9.96-6.72-3.65,0-6.88,1.82-8.82,4.61h8.82c.85,0,1.53.69,1.53,1.54v9.21c0,.85-.69,1.53-1.53,1.53H5.84c1.94,2.78,5.17,4.61,8.82,4.61,4.5,0,8.37-2.78,9.96-6.72.24-.58.8-.96,1.42-.96h6.4v-6.14Z"/>
        <rect class="cls-4" x="29.36" y="65.83" width="27.63" height="6.14"/>
      </g>
      <path class="cls-1" d="M64.67,15.17h-4.61c0-2.54-2.06-4.61-4.61-4.61-1.18,0-2.26.44-3.07,1.17-.81-.73-1.89-1.17-3.07-1.17s-2.25.44-3.07,1.17c-.82-.73-1.89-1.17-3.07-1.17s-2.25.44-3.07,1.17c-.81-.73-1.89-1.17-3.07-1.17-2.54,0-4.61,2.06-4.61,4.61h-5.4c-2.26-4.54-6.96-7.67-12.38-7.67-5.79,0-10.76,3.57-12.81,8.63-.19.47-.14,1.01.15,1.44.28.42.76.68,1.27.68h9.85v6.14H3.27c-.51,0-.99.25-1.27.68-.28.42-.34.96-.15,1.43,2.05,5.06,7.02,8.63,12.81,8.63,3.99,0,7.58-1.7,10.1-4.4v7.65c0,1.11.24,2.21.71,3.22.89,1.92,2.59,5.61,3.48,7.53.28.61.42,1.26.42,1.93v11.7s-1.53,0-1.53,0c-.85,0-1.54.69-1.54,1.53v9.21c0,.85.69,1.53,1.54,1.53h30.7c.85,0,1.54-.69,1.54-1.53v-9.21c0-.85-.69-1.53-1.54-1.53h-1.53v-12.13c0-.46.07-.92.2-1.36l2.53-8.21c.22-.73.34-1.49.34-2.26v-11.36h4.61c.85,0,1.53-.69,1.53-1.53v-9.21c0-.85-.69-1.54-1.53-1.54ZM24.62,25.34c-1.6,3.94-5.46,6.72-9.96,6.72-3.65,0-6.88-1.82-8.82-4.61h8.82c.85,0,1.53-.69,1.53-1.53v-9.21c0-.85-.69-1.54-1.53-1.54H5.84c1.94-2.78,5.17-4.61,8.82-4.61,4.5,0,8.37,2.78,9.96,6.72.24.58.8.96,1.42.96h6.4v6.14h-6.4c-.62,0-1.19.38-1.42.96ZM28.25,40.32c-.28-.61-.42-1.26-.42-1.93v-10.93h4.61c0,.85.69,1.53,1.53,1.53s1.53-.69,1.53-1.53v-12.28c0-.85.69-1.53,1.54-1.53s1.53.69,1.53,1.53v12.28c0,.85.69,1.53,1.53,1.53s1.54-.69,1.54-1.53v-12.28c0-.85.69-1.53,1.53-1.53s1.53.69,1.53,1.53v12.28c0,.85.69,1.53,1.54,1.53s1.53-.69,1.53-1.53v-12.28c0-.85.69-1.53,1.53-1.53s1.54.69,1.54,1.53v12.28c0,.85.69,1.53,1.53,1.53s1.53-.69,1.53-1.53v-12.28c0-.85.69-1.53,1.54-1.53s1.53.69,1.53,1.53v23.64c0,.46-.07.92-.2,1.36l-2.53,8.21c-.22.73-.34,1.49-.34,2.26v12.13h-21.49v-11.7c0-1.11-.24-2.21-.71-3.22-.88-1.92-2.59-5.61-3.47-7.53ZM56.99,71.97h-27.63v-6.14h27.63v6.14ZM63.13,24.38h-3.07v-6.14h3.07v6.14Z"/>
    </g>
  </g>
</svg>