<?xml version="1.0" encoding="UTF-8"?>
<svg id="Layer_2" data-name="Layer 2" xmlns="http://www.w3.org/2000/svg" viewBox="0 0 89.67 85.33">
  <defs>
    <style>
      .cls-1 {
        fill: #e71d24;
      }

      .cls-2 {
        fill: #306bac;
      }

      .cls-3 {
        fill: #034832;
      }

      .cls-4 {
        fill: #f5b719;
        fill-rule: evenodd;
      }
    </style>
  </defs>
  <g id="Layer_1-2" data-name="Layer 1">
    <g>
      <circle class="cls-2" cx="44.83" cy="43.83" r="41.5"/>
      <path class="cls-4" d="M89.44,21.3l-4.97-5.97c-.19-.23-.47-.36-.76-.36h-35.89V.99c0-.55-.44-.99-.99-.99h-3.98c-.55,0-.99.44-.99.99v30.91s-35.89,0-35.89,0c-.29,0-.57.13-.76.36L.23,38.23c-.31.37-.31.9,0,1.27l4.97,5.97c.19.23.47.36.76.36h35.89v20.88h-6.96c-.55,0-.99.44-.99.99v3.98c0,.55.44.99.99.99h19.89c.55,0,.99-.44.99-.99v-3.98c0-.55-.44-.99-.99-.99h-6.96V28.89h35.89c.29,0,.57-.13.76-.36l4.97-5.97c.31-.37.31-.9,0-1.27Z"/>
      <polygon class="cls-3" points="2.29 38.86 6.43 43.83 41.85 43.83 41.85 33.89 6.43 33.89 2.29 38.86"/>
      <polygon class="cls-1" points="83.24 16.96 47.82 16.96 47.82 26.9 83.24 26.9 87.38 21.93 83.24 16.96"/>
    </g>
  </g>
</svg>