<svg width="740" height="394" viewBox="0 0 740 394" fill="none" xmlns="http://www.w3.org/2000/svg">
<path opacity="0.28" d="M89.4846 635L89.4846 -105M182.86 635L182.86 -105M276.235 635L276.235 -105M369.611 635L369.611 -105M462.986 635L462.986 -105M556.362 635L556.362 -105M649.737 635L649.737 -105M2.44887e-05 -15.5152H740M2.04072e-05 77.8602H740M1.63258e-05 171.236H740M1.22443e-05 264.611H740M8.16289e-06 357.986H740M4.08144e-06 451.362H740M0 544.737H740" stroke="url(#paint0_radial_201_291)" stroke-width="0.770031"/>
<defs>
<radialGradient id="paint0_radial_201_291" cx="0" cy="0" r="1" gradientUnits="userSpaceOnUse" gradientTransform="translate(370 265) rotate(90) scale(370)">
<stop/>
<stop offset="1" stop-opacity="0"/>
</radialGradient>
</defs>
</svg>
